<svg width="80" height="84" viewBox="0 0 80 84" version="1.1" xmlns="http://www.w3.org/2000/svg" xmlns:xlink="http://www.w3.org/1999/xlink">
<title>touch_gesture_no_acton</title>
<desc>Created using Figma</desc>
<g id="Canvas" transform="translate(-400 -2560)">
<g id="touch_gesture_no_acton">
<g id="path">
<use xlink:href="#path0_fill" transform="translate(407.369 2568)" fill="#FFFFFF"/>
<use xlink:href="#path1_fill" transform="translate(407.369 2568)" fill="#FFFFFF"/>
<use xlink:href="#path2_fill" transform="translate(407.369 2568)" fill="#FFFFFF"/>
</g>
</g>
</g>
<defs>
<path id="path0_fill" d="M 25.6306 5C 27.2874 5 28.6306 6.34326 28.6306 8L 28.6306 32.3333L 30.6306 31.8889L 30.6306 22.9744C 30.6306 21.8921 31.5178 21 32.6306 21C 33.7434 21 34.6306 21.8921 34.6306 22.9744L 34.6306 31L 36.7209 31.5227L 37.6306 30.7834L 37.6306 24.9744C 37.6306 23.8921 38.5178 23 39.6306 23C 40.7434 23 41.6306 23.8921 41.6306 24.9744L 41.6306 27.5334L 43.6306 25.9084L 43.6306 24.9744C 43.6306 22.7712 41.8315 21 39.6306 21C 38.4158 21 37.3235 21.5398 36.5884 22.3938C 36.3052 20.4683 34.6345 19 32.6306 19C 31.9033 19 31.2197 19.1934 30.6306 19.532L 30.6306 9L 31.6306 9L 31.6306 13.2917C 32.8752 11.8816 33.6306 10.0291 33.6306 8C 33.6306 3.58179 30.0488 0 25.6306 0C 21.2124 0 17.6306 3.58179 17.6306 8C 17.6306 10.0291 18.386 11.8816 19.6306 13.2917L 19.6306 9L 20.6306 9L 20.6306 27.4133C 20.0176 27.1472 19.3411 27 18.6306 27C 15.8772 27 13.6306 29.2151 13.6306 31.9658L 13.6306 43.9805C 13.6343 44.4099 13.7227 44.9199 13.8635 45.3257L 15.1836 49.0217L 16.8296 47.6843L 15.7471 44.6531C 15.6567 44.4111 15.627 44.2385 15.6306 43.9805L 15.6306 31.9658C 15.6306 30.3359 16.9656 29 18.6306 29C 19.4011 29 20.1011 29.2861 20.6306 29.7551L 20.6306 43L 22.595 43L 22.6306 42.9709L 22.6306 8C 22.6306 6.34326 23.9739 5 25.6306 5Z"/>
<path id="path1_fill" d="M 28.1777 61.1331L 21.3579 54.3132L 19.7974 55.5808L 26.7637 62.5471C 27.7273 63.511 29.1155 63.9175 30.4468 63.6265L 43.4807 60.7751C 44.6335 60.5229 45.616 59.7749 46.1655 58.7307L 50.1702 51.1218C 50.4468 50.5806 50.6233 49.8665 50.6306 49.2588L 50.6306 30.5291L 48.6306 32.1541L 48.6306 49.2588C 48.6335 49.4019 48.626 49.5266 48.6052 49.6445C 48.5728 49.8281 48.5083 49.9951 48.4004 50.1902L 44.3958 57.7991C 44.1211 58.3213 43.6296 58.6953 43.0535 58.8215L 30.0193 61.6726C 29.3538 61.8181 28.6597 61.6147 28.1777 61.1331Z"/>
<path id="path2_fill" d="M 1.26123 66.7761L 65.2612 14.7761L 64 13.2239L 0 65.2239L 1.26123 66.7761Z"/>
</defs>
</svg>
