<svg width="80" height="84" viewBox="0 0 80 84" version="1.1" xmlns="http://www.w3.org/2000/svg" xmlns:xlink="http://www.w3.org/1999/xlink">
<title>touch_gesture_zoom_in_out</title>
<desc>Created using Figma</desc>
<g id="Canvas" transform="translate(363 -2590)">
<g id="touch_gesture_zoom_in_out">
<g id="path">
<use xlink:href="#path0_fill" transform="translate(-341 2612)" fill="#FFFFFF"/>
</g>
<g id="path" opacity="0.5">
<use xlink:href="#path1_fill" transform="translate(-354.447 2596)" fill="#FFFFFF"/>
<use xlink:href="#path2_fill" transform="translate(-354.447 2596)" fill="#FFFFFF"/>
<use xlink:href="#path3_fill" transform="translate(-354.447 2596)" fill="#FFFFFF"/>
<use xlink:href="#path4_fill" transform="translate(-354.447 2596)" fill="#FFFFFF"/>
</g>
</g>
</g>
<defs>
<path id="path0_fill" fill-rule="evenodd" d="M 15.3762 17.1707L 12.8938 14.3289L 11.8762 13.1707L 11.7268 13L 9 13L 9 14L 11.2732 14L 12.0574 14.8962C 10.8679 15.5977 9.48071 16 8 16C 3.58179 16 0 12.4182 0 8C 0 3.58179 3.58179 0 8 0C 10.0288 0 11.8813 0.755371 13.2915 2L 9 2L 9 3L 14.2451 3L 14.2502 3.00635C 15.5996 3.07397 16.8687 3.6853 17.7629 4.70752L 18.6846 5.76074C 18.8252 5.55298 18.9875 5.35571 19.1716 5.17163C 20.7336 3.60938 23.2664 3.60938 24.8284 5.17163L 26.0464 6.38965C 26.1711 5.57764 26.5461 4.79688 27.1716 4.17163C 28.7336 2.60938 31.2664 2.60938 32.8284 4.17163L 35.7539 7.09717C 36.0598 6.27881 36.6348 5.55444 37.4421 5.07007C 39.3364 3.93335 41.7935 4.54761 42.9299 6.44214L 46.4272 12.2708L 46.6201 12.5903C 46.814 12.9192 46.9878 13.3445 47.0798 13.7148L 49.8618 25.3064C 49.9473 25.6699 49.998 26.1001 49.9998 26.4734L 49.9998 34.5559C 49.9998 36.0901 49.2954 37.5396 48.0889 38.4875L 38.3845 46.1123C 36.449 47.6331 33.6121 47.0615 32.4167 44.9097L 31.9114 44L 21 44C 20.5557 44 20.1133 43.9407 19.6843 43.8237L 14.71 42.467L 14.6934 42.4792L 11.366 41.5552L 9.55396 41.0608L 9.28174 42.0137L 13.5134 43.1892C 12.4529 43.7085 11.2605 44 10 44C 5.58179 44 2 40.4182 2 36C 2 31.5818 5.58179 28 10 28C 12.8008 28 15.2654 29.4392 16.6946 31.6184L 12.5786 30.4751L 12.3037 31.4365L 14.1189 31.9407L 19.1133 33.3027L 20.4626 26.1057L 16.8147 18.8098L 15.3762 17.1707ZM 33.0881 42L 34.165 43.9382C 34.7627 45.0142 36.1812 45.3 37.1489 44.5396L 46.8533 36.9148C 47.5771 36.3462 47.9998 35.4766 47.9998 34.5559L 47.9998 26.4734C 48.0015 26.2178 47.9783 26.0212 47.917 25.7732L 45.135 14.1816C 45.0842 13.958 45.0256 13.8145 44.9053 13.6194L 41.2151 7.47095C 40.6467 6.52393 39.4182 6.2168 38.4709 6.78491C 37.5239 7.35327 37.2168 8.58179 37.7849 9.52905L 39.8457 12.9636L 38.8926 13.064L 31.4143 5.58569C 30.6331 4.80469 29.3669 4.80469 28.5857 5.58569C 27.8047 6.36694 27.8047 7.63306 28.5857 8.41431L 33.7742 13.6028L 30.7498 13.9211L 23.4143 6.58569C 22.6331 5.80469 21.3669 5.80469 20.5857 6.58569C 20.3557 6.81567 20.1934 7.08789 20.0989 7.3772C 19.8723 8.07056 20.0347 8.86304 20.5857 9.41431L 27.0154 15.844L 25.0979 17.4875L 23.5112 14.3142L 16.2578 6.02441C 15.688 5.37354 14.865 5 14 5L 8 5C 6.34326 5 5 6.34326 5 8C 5 9.65674 6.34326 11 8 11L 12.6387 11L 18.4888 17.6858L 22.5498 25.8079L 21.9639 28.9526L 21.0493 33.8308L 20.6758 35.802L 10.7893 33.1057C 9.19092 32.6697 7.54175 33.6121 7.10571 35.2107C 6.66968 36.8091 7.61206 38.4583 9.21069 38.8943L 20.2107 41.8943C 20.468 41.9644 20.7334 42 21 42L 33.0881 42Z"/>
<path id="path1_fill" d="M 10.4473 3.98486C 9.61157 5.01953 8.43652 6.10645 6.89453 6.89453L 6 5.10547C 7.82642 4.21606 8.88184 2.9209 9.5896 1.7356C 9.91992 1.18848 10.2104 0.609863 10.4053 0L 12.4856 0C 12.6741 0.610596 12.9768 1.19263 13.3047 1.7356C 14.0125 2.9209 15.0681 4.21606 16.8945 5.10547L 16 6.89453C 14.4578 6.10645 13.2827 5.01953 12.4473 3.98486L 12.4473 15L 10.4473 15L 10.4473 3.98486Z"/>
<path id="path2_fill" d="M 4.44727 41.9849C 3.61157 43.0195 2.43652 44.1064 0.894531 44.8945L 0 43.1055C 1.82642 42.2161 2.88184 40.9209 3.5896 39.7356C 3.91992 39.1885 4.21045 38.6099 4.40527 38L 6.4856 38C 6.67407 38.6106 6.97681 39.1926 7.30469 39.7356C 8.01245 40.9209 9.06812 42.2161 10.8945 43.1055L 10 44.8945C 8.45776 44.1064 7.28271 43.0195 6.44727 41.9849L 6.44727 53L 4.44727 53L 4.44727 41.9849Z"/>
<path id="path3_fill" d="M 16 65.1055C 14.458 65.8936 13.283 66.9805 12.4473 68.0151L 12.4473 57L 10.4473 57L 10.4473 68.0151C 9.61182 66.9805 8.43677 65.8936 6.89453 65.1055L 6 66.8945C 7.82642 67.7839 8.88208 69.0791 9.58984 70.2644C 9.72778 70.4929 9.86121 70.7283 9.98364 70.9697C 10.1522 71.3022 10.2998 71.6462 10.4089 72L 12.4893 72C 12.6841 71.3901 12.9746 70.8115 13.3049 70.2644C 14.0127 69.0791 15.0681 67.7839 16.8945 66.8945L 16 65.1055Z"/>
<path id="path4_fill" d="M 6.44727 30.0151C 7.28296 28.9805 8.45801 27.8936 10 27.1055L 10.8945 28.8945C 9.06812 29.7839 8.0127 31.0791 7.30493 32.2644C 6.97461 32.8115 6.68408 33.3901 6.48926 34L 4.40894 34C 4.28027 33.5833 4.09851 33.1799 3.89185 32.7932C 3.79565 32.6133 3.69397 32.4368 3.58984 32.2644C 2.88208 31.0791 1.82642 29.7839 0 28.8945L 0.894531 27.1055C 2.43677 27.8936 3.61182 28.9805 4.44727 30.0151L 4.44727 19L 6.44727 19L 6.44727 30.0151Z"/>
</defs>
</svg>
