<svg width="80" height="84" viewBox="0 0 80 84" version="1.1" xmlns="http://www.w3.org/2000/svg" xmlns:xlink="http://www.w3.org/1999/xlink">
<title>touch_gesture_drag</title>
<desc>Created using Figma</desc>
<g id="Canvas" transform="translate(363 -2766)">
<g id="touch_gesture_drag">
<g id="path">
<use xlink:href="#path0_fill" transform="translate(-337 2780)" fill="#FFFFFF"/>
</g>
<g id="path" opacity="0.5">
<use xlink:href="#path1_fill" transform="translate(-347 2766)" fill="#FFFFFF"/>
<use xlink:href="#path2_fill" transform="translate(-347 2766)" fill="#FFFFFF"/>
<use xlink:href="#path3_fill" transform="translate(-347 2766)" fill="#FFFFFF"/>
</g>
</g>
</g>
<defs>
<path id="path0_fill" fill-rule="evenodd" d="M 6 9L 7 9L 7 27.4133C 6.38696 27.1472 5.71045 27 5 27C 2.24658 27 0 29.2151 0 31.9658L 0 43.9805C 0.00366211 44.4099 0.092041 44.9199 0.23291 45.3257L 2.3313 51.2012C 2.52368 51.7212 2.88208 52.2878 3.27002 52.6841L 13.1331 62.5471C 14.0967 63.511 15.4849 63.9175 16.8162 63.6265L 29.8501 60.7751C 31.0029 60.5229 31.9854 59.7749 32.5349 58.7307L 36.5396 51.1218C 36.8162 50.5806 36.9927 49.8665 37 49.2588L 37 30C 37 27.7969 35.2009 26.0256 33 26.0256C 31.8083 26.0256 30.7344 26.5452 30 27.3711L 30 24.9744C 30 22.7712 28.2009 21 26 21C 24.7852 21 23.6929 21.5398 22.9578 22.3938C 22.6746 20.4683 21.0039 19 19 19C 18.2727 19 17.5891 19.1934 17 19.532L 17 9L 18 9L 18 13.2917C 19.2446 11.8816 20 10.0291 20 8C 20 3.58179 16.4182 0 12 0C 7.58179 0 4 3.58179 4 8C 4 10.0291 4.75537 11.8816 6 13.2917L 6 9ZM 12 5C 13.6567 5 15 6.34326 15 8L 15 32.3333L 17 31.8889L 17 22.9744C 17 21.8921 17.8872 21 19 21C 20.1128 21 21 21.8921 21 22.9744L 21 31L 24 31.75L 24 24.9744C 24 23.8921 24.8872 23 26 23C 27.1128 23 28 23.8921 28 24.9744L 28 32.75L 31 33.5L 31 30C 31 28.9177 31.8872 28.0256 33 28.0256C 34.1128 28.0256 35 28.9177 35 30L 35 49.2588C 35.0073 49.6248 34.9468 49.8699 34.7698 50.1902L 30.7651 57.7991C 30.4905 58.3213 29.999 58.6953 29.4229 58.8213L 16.3887 61.6726C 15.7231 61.8181 15.0291 61.6147 14.5471 61.1331L 4.68408 51.27C 4.44385 51.0383 4.32129 50.8447 4.21484 50.5283L 2.11646 44.6531C 2.02612 44.4111 1.99634 44.2385 2 43.9805L 2 31.9658C 2 30.3359 3.33496 29 5 29C 5.77051 29 6.47046 29.2861 7 29.7551L 7 43L 9 43L 9 8C 9 6.34326 10.3433 5 12 5Z"/>
<path id="path1_fill" d="M 21 3.98486C 20.1643 5.01953 18.9893 6.10645 17.4473 6.89453L 16.5527 5.10547C 18.3792 4.21606 19.4346 2.9209 20.1423 1.7356C 20.4727 1.18848 20.7632 0.609863 20.958 0L 23.0383 0C 23.2268 0.610596 23.5295 1.19263 23.8574 1.7356C 24.5652 2.9209 25.6208 4.21606 27.4473 5.10547L 26.5527 6.89453C 25.0105 6.10645 23.8354 5.01953 23 3.98486L 23 10L 21 10L 21 3.98486Z"/>
<path id="path2_fill" d="M 10 21L 3.98486 21C 5.01953 20.1646 6.10645 18.9895 6.89453 17.4473L 5.10547 16.5527C 4.21606 18.3792 2.9209 19.4348 1.7356 20.1426C 1.19263 20.4705 0.610596 20.7732 0 20.9617L 0 23.042C 0.609863 23.2368 1.18848 23.5273 1.7356 23.8577C 2.9209 24.5654 4.21606 25.6208 5.10547 27.4473L 6.89453 26.5527C 6.10645 25.0107 5.01953 23.8357 3.98486 23L 10 23L 10 21Z"/>
<path id="path3_fill" d="M 34 23L 40.0151 23C 38.9805 23.8354 37.8936 25.0105 37.1055 26.5527L 38.8945 27.4473C 39.7839 25.6208 41.0791 24.5652 42.2644 23.8574C 42.8074 23.5295 43.3894 23.2268 44 23.0383L 44 20.958C 43.3901 20.7632 42.8115 20.4727 42.2644 20.1423C 41.0791 19.4346 39.7839 18.3792 38.8945 16.5527L 37.1055 17.4473C 37.8936 18.9893 38.9805 20.1643 40.0151 21L 34 21L 34 23Z"/>
</defs>
</svg>
