<svg width="80" height="84" viewBox="0 0 80 84" version="1.1" xmlns="http://www.w3.org/2000/svg" xmlns:xlink="http://www.w3.org/1999/xlink">
<title>touch_gesture_rotate</title>
<desc>Created using Figma</desc>
<g id="Canvas" transform="translate(363 -2678)">
<g id="touch_gesture_rotate">
<g id="path">
<use xlink:href="#path0_fill" transform="translate(-337 2696)" fill="#FFFFFF"/>
</g>
<g id="path" opacity="0.5">
<use xlink:href="#path1_fill" transform="translate(-359.448 2707.97)" fill="#FFFFFF"/>
</g>
</g>
</g>
<defs>
<path id="path0_fill" fill-rule="evenodd" d="M 15.3762 17.1707L 12.8938 14.3289L 11.8762 13.1707L 11.7268 13L 9 13L 9 14L 11.2732 14L 12.0574 14.8962C 10.8679 15.5977 9.48071 16 8 16C 3.58179 16 0 12.4182 0 8C 0 3.58179 3.58179 0 8 0C 10.0288 0 11.8813 0.755371 13.2915 2L 9 2L 9 3L 14.2451 3L 14.2502 3.00635C 15.5996 3.07397 16.8687 3.6853 17.7629 4.70752L 18.6846 5.76074C 18.8252 5.55298 18.9875 5.35571 19.1716 5.17163C 20.7336 3.60938 23.2664 3.60938 24.8284 5.17163L 26.0464 6.38965C 26.1711 5.57764 26.5461 4.79688 27.1716 4.17163C 28.7336 2.60938 31.2664 2.60938 32.8284 4.17163L 35.7539 7.09717C 36.0598 6.27881 36.6348 5.55444 37.4421 5.07007C 39.3364 3.93335 41.7935 4.54761 42.9299 6.44214L 46.4272 12.2708L 46.6201 12.5903C 46.814 12.9192 46.9878 13.3445 47.0798 13.7148L 49.8618 25.3064C 49.9473 25.6699 49.998 26.1001 49.9998 26.4734L 49.9998 34.5559C 49.9998 36.0901 49.2954 37.5396 48.0889 38.4875L 38.3845 46.1123C 36.449 47.6331 33.6121 47.0615 32.4167 44.9097L 31.9114 44L 21 44C 20.5557 44 20.1133 43.9407 19.6843 43.8237L 14.71 42.467L 14.6934 42.4792L 11.366 41.5552L 9.55396 41.0608L 9.28174 42.0137L 13.5134 43.1892C 12.4529 43.7085 11.2605 44 10 44C 5.58179 44 2 40.4182 2 36C 2 31.5818 5.58179 28 10 28C 12.8008 28 15.2654 29.4392 16.6946 31.6184L 12.5786 30.4751L 12.3037 31.4365L 14.1189 31.9407L 19.1133 33.3027L 20.4626 26.1057L 16.8147 18.8098L 15.3762 17.1707ZM 33.0881 42L 34.165 43.9382C 34.7627 45.0142 36.1812 45.3 37.1489 44.5396L 46.8533 36.9148C 47.5771 36.3462 47.9998 35.4766 47.9998 34.5559L 47.9998 26.4734C 48.0015 26.2178 47.9783 26.0212 47.917 25.7732L 45.135 14.1816C 45.1084 14.0645 45.0796 13.9692 45.041 13.8772C 45.0059 13.7935 44.9626 13.7124 44.9053 13.6194L 41.2151 7.47095C 40.6467 6.52393 39.4182 6.2168 38.4709 6.78491C 37.5239 7.35327 37.2168 8.58179 37.7849 9.52905L 39.8457 12.9636L 38.8926 13.064L 31.4143 5.58569C 30.6331 4.80469 29.3669 4.80469 28.5857 5.58569C 27.8047 6.36694 27.8047 7.63306 28.5857 8.41431L 33.7742 13.6028L 30.7498 13.9211L 23.4143 6.58569C 22.6331 5.80469 21.3669 5.80469 20.5857 6.58569C 20.3557 6.81567 20.1934 7.08789 20.0989 7.3772C 19.8723 8.07056 20.0347 8.86304 20.5857 9.41431L 27.0154 15.844L 25.0979 17.4875L 23.5112 14.3142L 16.2578 6.02441C 15.688 5.37354 14.865 5 14 5L 8 5C 6.34326 5 5 6.34326 5 8C 5 9.65674 6.34326 11 8 11L 12.6387 11L 18.4888 17.6858L 22.5498 25.8079L 21.9639 28.9526L 21.0493 33.8308L 20.6758 35.802L 10.7893 33.1057C 9.19092 32.6697 7.54175 33.6121 7.10571 35.2107C 6.66968 36.8091 7.61206 38.4583 9.21069 38.8943L 20.2107 41.8943C 20.468 41.9644 20.7334 42 21 42L 33.0881 42Z"/>
<path id="path1_fill" d="M 4.44751 24.0288C 4.44751 13.8235 9.90723 4.89331 18.0652 0C 18.2729 0.648438 18.5305 1.27466 18.8328 1.87427C 11.4016 6.45068 6.44751 14.6611 6.44751 24.0288C 6.44751 24.3608 6.45361 24.6917 6.46606 25.0208C 7.30054 23.9932 8.46948 22.9165 10 22.1343L 10.8945 23.9233C 9.06812 24.8127 8.0127 26.1079 7.30493 27.2932C 6.97461 27.8403 6.68408 28.4189 6.48926 29.0288L 4.40894 29.0288C 4.29175 28.6489 4.13013 28.28 3.9458 27.9248C 3.83398 27.709 3.71362 27.4983 3.58984 27.2932C 2.88208 26.1079 1.82642 24.8127 0 23.9233L 0.894531 22.1343C 2.43677 22.9224 3.61182 24.0093 4.44727 25.0439L 4.46558 25.0439C 4.45361 24.707 4.44751 24.3687 4.44751 24.0288Z"/>
</defs>
</svg>
