<svg id="_svg_anaglyph_btn" width="40" height="40" xmlns="http://www.w3.org/2000/svg" xmlns:xlink="http://www.w3.org/1999/xlink"><g transform="translate(6 15)"><use xlink:href="#path_anaglyph_0_fill"/><use xlink:href="#path_anaglyph_1_fill"/></g><defs><path id="path_anaglyph_0_fill" d="M23 4h-3v2h3V4z"/><path id="path_anaglyph_1_fill" fill-rule="evenodd" d="M0 3a3 3 0 0 1 3-3h22a3 3 0 0 1 3 3v4a3 3 0 0 1-3 3h-8l-1.553-3.105a1.618 1.618 0 0 0-2.894 0L11 10H3a3 3 0 0 1-3-3V3zm3 1a2 2 0 0 1 2-2h3a2 2 0 0 1 2 2v2a2 2 0 0 1-2 2H5a2 2 0 0 1-2-2V4zm17-2a2 2 0 0 0-2 2v2a2 2 0 0 0 2 2h3a2 2 0 0 0 2-2V4a2 2 0 0 0-2-2h-3z"/></defs></svg>