<svg width="32" height="32" xmlns="http://www.w3.org/2000/svg" xmlns:xlink="http://www.w3.org/1999/xlink"><g transform="translate(-3074 -1832)"><mask id="a"><use xlink:href="#path0_fill" fill="#fff" transform="translate(3075 1835)"/></mask><g mask="url(#a)"><use xlink:href="#path1_stroke_2x" transform="translate(3075 1835)" fill="#FFF"/></g></g><g transform="translate(-3074 -1832)"><mask id="b"><use xlink:href="#path0_fill" fill="#fff" transform="translate(3087 1835)"/></mask><g mask="url(#b)"><use xlink:href="#path1_stroke_2x" transform="translate(3087 1835)" fill="#FFF"/></g></g><g transform="translate(-3074 -1832)"><mask id="c"><path fill="#fff" transform="translate(3080 1849)" d="M-2-2h17v14H-2z"/><use xlink:href="#path2_fill" transform="translate(3080 1849)"/></mask><g mask="url(#c)"><use xlink:href="#path3_stroke_2x" transform="translate(3080 1849)" fill="#FFF"/></g></g><use xlink:href="#path4_fill" transform="translate(23 13)" fill="#FFF"/><defs><path id="path0_fill" d="M10 5A5 5 0 1 1 0 5a5 5 0 0 1 10 0z"/><path id="path1_stroke_2x" d="M8 5a3 3 0 0 1-3 3v4a7 7 0 0 0 7-7H8zM5 8a3 3 0 0 1-3-3h-4a7 7 0 0 0 7 7V8zM2 5a3 3 0 0 1 3-3v-4a7 7 0 0 0-7 7h4zm3-3a3 3 0 0 1 3 3h4a7 7 0 0 0-7-7v4z"/><path id="path2_fill" d="M0 0h13v10H0V0z"/><path id="path3_stroke_2x" d="M0 0v-2a2 2 0 0 0-2 2h2zm13 0h2a2 2 0 0 0-2-2v2zm0 10v2a2 2 0 0 0 2-2h-2zM0 10h-2a2 2 0 0 0 2 2v-2zm0-8h13v-4H0v4zm11-2v10h4V0h-4zm2 8H0v4h13V8zM2 10V0h-4v10h4z"/><path id="path4_fill" fill-rule="evenodd" d="M8 1A1 1 0 0 0 6.553.106L0 3.382v2.236l6-3v11.764l-6-3v2.236l6.553 3.276A1 1 0 0 0 8 16V1z"/></defs></svg>