<svg width="56" height="56" xmlns="http://www.w3.org/2000/svg" xmlns:xlink="http://www.w3.org/1999/xlink"><use xlink:href="#path_fb_fill" transform="matrix(.1274 0 0 -.1274 11 45)"/><defs><path id="path_fb_fill" d="M252.164 266.895H14.73c-8.136 0-14.73-6.594-14.73-14.73V14.731C0 6.596 6.594 0 14.73 0h127.827v103.356h-34.782v40.28h34.782v29.705c0 34.472 21.054 53.243 51.806 53.243 14.731 0 27.391-1.096 31.08-1.586v-36.026l-21.328-.01c-16.724 0-19.963-7.947-19.963-19.609v-25.717h39.887l-5.193-40.28h-34.694V0h68.012c8.135 0 14.73 6.596 14.73 14.731v237.434c0 8.136-6.595 14.73-14.73 14.73z"/></defs></svg>