<svg width="56" height="56" xmlns="http://www.w3.org/2000/svg" xmlns:xlink="http://www.w3.org/1999/xlink"><use xlink:href="#path_gplus_fill" transform="translate(10 10)"/><defs><path id="path_gplus_fill" fill-rule="evenodd" d="M18 36c9.941 0 18-8.059 18-18S27.942 0 18 0 0 8.059 0 18s8.059 18 18 18zm8.431-21.613h2.377c.014.777.014 1.56.014 2.337v.05c.397 0 .796.005 1.195.01l.855.007h.338v2.38l-2.388.014c-.014.778-.014 1.552-.014 2.33v.06h-2.38c-.013-.78-.013-1.556-.013-2.332v-.055a71.476 71.476 0 0 1-1.194-.008c-.398-.005-.797-.009-1.194-.009v-2.377h.006c.793 0 1.585 0 2.382-.017 0-.397.003-.795.007-1.193.003-.399.006-.797.006-1.194l.003-.003zM13.212 16.46v3.149h4.652c-.22 1.325-1.41 3.562-4.643 3.562-2.794 0-5.074-2.321-5.074-5.166s2.28-5.167 5.074-5.167c1.579 0 2.642.676 3.25 1.25l2.397-2.33c-1.46-1.368-3.368-2.204-5.647-2.204a8.445 8.445 0 0 0-8.442 8.442 8.445 8.445 0 0 0 8.442 8.442c4.87 0 8.104-3.427 8.104-8.248 0-.7-.093-1.198-.211-1.73h-7.902z"/></defs></svg>