<svg width="40" height="40" viewBox="0 0 40 40" xmlns="http://www.w3.org/2000/svg">
<path fill-rule="evenodd" clip-rule="evenodd" d="M26 13C26 20.1797 20.1797 26 13 26C5.82031 26 0 20.1797 0 13C0 5.82031 5.82031 0 13 0C20.1797 0 26 5.82031 26 13ZM12.5 8C11.1194 8 10 9.11938 10 10.5V11H7V10.5C7 7.4624 9.4624 5 12.5 5H15.0132C17.7673 5 20 7.23267 20 9.98682C20 12.1333 18.6265 14.0391 16.5901 14.7178L14.3418 15.4673C14.1377 15.5352 14 15.7263 14 15.9414V17H11V15.9414C11 14.4351 11.9641 13.0974 13.3933 12.6211L15.6414 11.8718C16.4529 11.6013 17 10.842 17 9.98682C17 8.88965 16.1104 8 15.0132 8H12.5ZM14 22V19H11V22H14Z" transform="translate(7 7)" />
</svg>