<svg width="80" height="52" xmlns="http://www.w3.org/2000/svg" xmlns:xlink="http://www.w3.org/1999/xlink"><g fill="#FFF"><g opacity=".5" transform="translate(0 28)"><use xlink:href="#path0_fill"/><use xlink:href="#path1_fill"/></g><g opacity=".5" transform="translate(28 28)"><use xlink:href="#path2_fill"/><use xlink:href="#path3_fill"/></g><g opacity=".5" transform="translate(56 28)"><use xlink:href="#path4_fill"/><use xlink:href="#path5_fill"/></g><g transform="translate(28)"><use xlink:href="#path6_fill"/><use xlink:href="#path7_fill"/></g></g><defs><path id="path0_fill" fill-rule="evenodd" d="M9.817 15.51h4.366l.838 2.49h2.648L13.145 5.914h-2.307L6.338 18h2.649l.83-2.49zm3.694-2.017h-3.022l1.503-4.524 1.519 4.524z"/><path id="path1_fill" fill-rule="evenodd" d="M0 6a6 6 0 0 1 6-6h12a6 6 0 0 1 6 6v12a6 6 0 0 1-6 6H6a6 6 0 0 1-6-6V6zm6-4h12a4 4 0 0 1 4 4v12a4 4 0 0 1-4 4H6a4 4 0 0 1-4-4V6a4 4 0 0 1 4-4z"/><path id="path2_fill" d="M13.619 13.75c.332.249.498.609.498 1.08 0 .43-.166.768-.498 1.012-.332.238-.794.357-1.387.357-1.593 0-2.39-.667-2.39-2H7.343c0 .78.2 1.466.598 2.058.404.592.988 1.06 1.751 1.403.764.337 1.61.506 2.54.506 1.34 0 2.405-.296 3.196-.888.792-.598 1.187-1.42 1.187-2.465 0-.941-.323-1.727-.971-2.358-.647-.63-1.68-1.16-3.096-1.585-.77-.233-1.353-.482-1.752-.747-.393-.266-.589-.595-.589-.988 0-.42.169-.758.506-1.013.338-.26.811-.39 1.42-.39.63 0 1.12.155 1.47.465.348.304.522.733.522 1.286h2.49c0-.725-.188-1.372-.564-1.942-.37-.57-.894-1.01-1.57-1.32-.674-.315-1.443-.473-2.307-.473-.857 0-1.632.144-2.324.432-.686.287-1.215.689-1.585 1.203a2.915 2.915 0 0 0-.548 1.743c0 1.257.686 2.256 2.058 2.997.504.271 1.187.548 2.05.83.864.277 1.462.542 1.794.797z"/><path id="path3_fill" fill-rule="evenodd" d="M0 6a6 6 0 0 1 6-6h12a6 6 0 0 1 6 6v12a6 6 0 0 1-6 6H6a6 6 0 0 1-6-6V6zm6-4h12a4 4 0 0 1 4 4v12a4 4 0 0 1-4 4H6a4 4 0 0 1-4-4V6a4 4 0 0 1 4-4z"/><path id="path4_fill" fill-rule="evenodd" d="M7.55 5.914V18h3.744c1.057-.006 2.006-.249 2.848-.73a4.937 4.937 0 0 0 1.95-2.034c.465-.875.698-1.873.698-2.997v-.556c0-1.123-.236-2.125-.706-3.005a4.965 4.965 0 0 0-1.967-2.042c-.836-.481-1.785-.722-2.848-.722H7.552zM10.042 16V7.931h1.229c.979 0 1.723.318 2.232.955.51.63.764 1.56.764 2.789v.639c-.011 1.184-.274 2.095-.789 2.73-.514.637-1.258.955-2.232.955H10.04z"/><path id="path5_fill" fill-rule="evenodd" d="M0 6a6 6 0 0 1 6-6h12a6 6 0 0 1 6 6v12a6 6 0 0 1-6 6H6a6 6 0 0 1-6-6V6zm6-4h12a4 4 0 0 1 4 4v12a4 4 0 0 1-4 4H6a4 4 0 0 1-4-4V6a4 4 0 0 1 4-4z"/><path id="path6_fill" d="M16.682 5.914l-1.627 8.6-1.984-8.6h-2.109L8.97 14.497 7.335 5.914H4.853L7.534 18h2.507l1.967-8.085L13.976 18h2.506l2.682-12.086h-2.482z"/><path id="path7_fill" fill-rule="evenodd" d="M0 6a6 6 0 0 1 6-6h12a6 6 0 0 1 6 6v12a6 6 0 0 1-6 6H6a6 6 0 0 1-6-6V6zm6-4h12a4 4 0 0 1 4 4v12a4 4 0 0 1-4 4H6a4 4 0 0 1-4-4V6a4 4 0 0 1 4-4z"/></defs></svg>