<svg width="120" height="120" xmlns="http://www.w3.org/2000/svg" xmlns:xlink="http://www.w3.org/1999/xlink"><use xlink:href="#path0_fill" fill="#FFF"/><defs><path id="path0_fill" fill-rule="evenodd" d="M120 60c0 33.137-26.863 60-60 60S0 93.137 0 60 26.863 0 60 0s60 26.863 60 60zM59.944 24.78c.728 0 1.458.156 2.165.455l24.95 11.337a6.748 6.748 0 0 0-2.054.877c-6.413 4.096-10.726 7.532-13.646 10.659-4.356-3.926-9.577-4.274-11.493-4.402-.155-.01-.289-.019-.398-.028-1.691-.142-3.347.152-4.975.442-1.116.198-2.218.394-3.31.446-2.046.097-5.717-.392-16.254-7.117-.63-.402-1.33-.7-2.055-.877l24.95-11.337a5.186 5.186 0 0 1 2.12-.455zm-28.58 15.533a2.592 2.592 0 0 1 1.476.422c10.838 6.897 15.441 7.845 18.51 7.717.969-.04 1.87-.207 2.879-.395.587-.109 1.212-.225 1.908-.327 1.889-.275 4.225-.338 7.116.423a2.597 2.597 0 0 1 1.857 3.172 2.594 2.594 0 0 1-3.178 1.846c-2.228-.586-3.588-.524-5.052-.31-.458.066-.933.158-1.438.256-1.108.215-2.358.457-3.88.52-4.43.185-10.282-1.383-21.507-8.527a2.594 2.594 0 0 1 1.309-4.797zm57.127 0a2.596 2.596 0 0 1 2.512 1.873 2.594 2.594 0 0 1-1.124 2.924C79.039 52.003 76.23 55.767 75.045 58.6c-.374.898-.606 1.787-.866 2.783-.15.576-.31 1.189-.511 1.86-.55 1.827-1.484 3.975-3.398 6.272a2.594 2.594 0 0 1-3.985-3.32c1.475-1.77 1.993-3.024 2.42-4.44.133-.442.25-.909.376-1.405v-.003c.278-1.098.59-2.337 1.179-3.745 1.71-4.09 5.616-8.726 16.843-15.867.413-.27.894-.416 1.388-.422zM26.967 47.62a6.84 6.84 0 0 0 1 .767c6.452 4.087 11.4 6.544 15.478 7.86-2.536 8.57 2.462 15.264 3.92 17.133.871 1.12 1.711 1.996 2.382 2.696h.001c.45.47.823.86 1.08 1.19 1.278 1.65 2.676 3.927 2.654 14.924 0 .572.079 1.145.223 1.698L33.44 78.132a5.247 5.247 0 0 1-1.932-3.242l-4.541-27.27zm65.998 0l-4.54 27.27a5.26 5.26 0 0 1-1.943 3.243L66.229 93.887a6.707 6.707 0 0 0 .222-1.698c-.02-6.189-.563-10.904-1.52-14.58 6.871-2.072 9.828-7.505 10.801-9.292.075-.138.138-.254.19-.345.843-1.471 1.279-3.092 1.708-4.686.294-1.094.585-2.175 1.002-3.186.78-1.895 2.776-5.022 13.334-11.714.356-.226.69-.48 1-.767zM49.607 61.032a2.594 2.594 0 0 1 2.487 1.921c.967 3.406 2.213 4.705 3.754 6.313.663.691 1.38 1.44 2.153 2.437 2.573 3.317 4.564 8.549 4.564 20.486a2.599 2.599 0 0 1-5.196 0c0-11.4-1.632-14.947-3.465-17.31-.444-.573-.97-1.126-1.538-1.722-1.776-1.863-3.952-4.148-5.269-8.782a2.595 2.595 0 0 1 2.51-3.343z"/></defs></svg>