<svg width="28" height="30" xmlns="http://www.w3.org/2000/svg" xmlns:xlink="http://www.w3.org/1999/xlink"><use xlink:href="#path0_fill" fill="#FFF"/><defs><path id="path0_fill" fill-rule="evenodd" d="M13.99 0c.31 0 .619.067.92.195l10.584 4.858a2.848 2.848 0 0 0-.871.376c-2.721 1.756-4.55 3.228-5.79 4.568-1.847-1.682-4.063-1.831-4.876-1.886h-.002l-.166-.012c-.718-.061-1.42.065-2.111.19h-.002c-.472.084-.94.168-1.402.19-.868.042-2.426-.168-6.896-3.05a2.89 2.89 0 0 0-.872-.376L13.091.195c.287-.129.591-.195.9-.195zM1.866 6.657c.222-.005.44.058.627.18 4.598 2.956 6.55 3.363 7.853 3.308.41-.018.793-.09 1.22-.17.25-.046.515-.096.81-.14a7.286 7.286 0 0 1 3.02.181 1.096 1.096 0 0 1 .673.515 1.12 1.12 0 0 1-.397 1.523 1.096 1.096 0 0 1-.837.113c-.945-.251-1.522-.225-2.143-.133-.195.028-.396.068-.61.11-.47.092-1 .196-1.647.223-1.879.079-4.362-.593-9.124-3.654a1.122 1.122 0 0 1-.098-1.82c.187-.148.416-.23.653-.236zm24.237 0c.24-.002.474.075.666.22a1.121 1.121 0 0 1-.078 1.835c-4.598 2.954-5.79 4.568-6.292 5.782-.16.384-.258.765-.368 1.192-.064.248-.132.51-.217.797a7.465 7.465 0 0 1-1.441 2.688 1.096 1.096 0 0 1-1.935-.613 1.12 1.12 0 0 1 .244-.81c.625-.758.845-1.296 1.026-1.903.057-.188.107-.388.16-.6v-.003c.118-.47.25-1.001.5-1.605.726-1.752 2.383-3.74 7.146-6.8.175-.115.38-.178.589-.18zM0 9.787c.13.124.273.233.424.33C3.16 11.867 5.26 12.92 6.99 13.484c-1.076 3.673 1.044 6.541 1.663 7.342.37.48.726.856 1.01 1.156.192.2.35.368.46.51.541.706 1.134 1.682 1.125 6.395 0 .245.034.49.095.728l-8.598-6.752a2.253 2.253 0 0 1-.82-1.39L0 9.788zm28 0l-1.927 11.687a2.257 2.257 0 0 1-.824 1.39l-8.592 6.752a2.9 2.9 0 0 0 .094-.728c-.008-2.652-.239-4.673-.645-6.248 2.915-.888 4.17-3.216 4.583-3.982v-.001l.08-.147c.358-.63.543-1.325.725-2.008.125-.469.248-.932.425-1.366.33-.812 1.178-2.152 5.657-5.02.151-.096.293-.205.424-.328zm-18.395 5.75c.241 0 .475.082.665.23.191.15.328.357.39.592.41 1.46.939 2.017 1.593 2.706.281.296.585.617.913 1.044 1.092 1.421 1.936 3.664 1.936 8.779 0 .295-.116.578-.323.786a1.095 1.095 0 0 1-1.557 0 1.12 1.12 0 0 1-.324-.786c0-4.885-.692-6.405-1.47-7.418-.188-.245-.411-.482-.652-.737v-.001c-.754-.799-1.677-1.778-2.236-3.764a1.123 1.123 0 0 1 .174-.988 1.103 1.103 0 0 1 .891-.444z"/></defs></svg>