<svg width="80" height="84" xmlns="http://www.w3.org/2000/svg" xmlns:xlink="http://www.w3.org/1999/xlink"><g fill="#FFF"><g transform="translate(11 14)"><use xlink:href="#path0_fill"/><use xlink:href="#path1_fill"/><use xlink:href="#path2_fill"/></g><g transform="translate(23 14)" fill-opacity=".5"><use xlink:href="#path3_fill"/><use xlink:href="#path4_fill"/></g></g><defs><path id="path0_fill" d="M35 4a5.977 5.977 0 0 0-1.528-4H34c6.627 0 12 5.373 12 12v11c-14.824 0-18 0-18-8v-.083A6 6 0 0 0 35 9V4z"/><path id="path1_fill" d="M0 28l4 5V23l-4 5z"/><path id="path2_fill" d="M58 28l-4-5v10l4-5z"/><path id="path3_fill" d="M11.334 2.022A5.996 5.996 0 0 1 12.528 0H12C5.373 0 0 5.373 0 12v32c0 6.627 5.373 12 12 12h10c6.627 0 12-5.373 12-12V25h-2v19c0 5.523-4.477 10-10 10H12C6.477 54 2 49.523 2 44V23c7.172-.01 11.285-.12 13.54-1.467a6.543 6.543 0 0 1-.622-1.056 7.514 7.514 0 0 1-.296-.728 3.9 3.9 0 0 1-.77.38c-1.019.385-2.545.626-4.89.749-1.894.1-4.182.118-6.962.121V12c0-5.299 4.122-9.635 9.334-9.978z"/><path id="path4_fill" fill-rule="evenodd" d="M21 4a4 4 0 0 0-8 0v5a4 4 0 1 0 8 0V4zm-6 0v5a2 2 0 1 0 4 0V4a2 2 0 1 0-4 0z"/></defs></svg>