<svg id="_svg_q_ultra_btn" width="40" height="40" viewBox="0 0 40 40" xmlns="http://www.w3.org/2000/svg">
<path d="M7.62891 6.55566V0H5.57129V6.62402C5.55298 7.83618 4.96753 8.44238 3.81445 8.44238C3.26294 8.44238 2.83008 8.29419 2.51562 7.99805C2.20581 7.69727 2.05078 7.22095 2.05078 6.56934V0H0V6.63086C0.0136719 7.7063 0.362305 8.55176 1.0459 9.16699C1.72949 9.78223 2.65234 10.0898 3.81445 10.0898C4.99487 10.0898 5.92456 9.77319 6.60352 9.13965C7.28711 8.5061 7.62891 7.64478 7.62891 6.55566Z" transform="translate(7.79297 8.04688)" />
<path d="M5.20703 18.9531L21.207 2.95312H25.207V22.9531H5.20703V18.9531Z" transform="translate(7.79297 8.04688)" />
</svg>
