<svg width="56" height="56" xmlns="http://www.w3.org/2000/svg" xmlns:xlink="http://www.w3.org/1999/xlink"><use xlink:href="#path_reddit_fill" transform="translate(7.86 10)"/><defs><path id="path_reddit_fill" d="M33.864 0c-1.453 0-2.703.906-3.235 2.191L23.26.421a.683.683 0 0 0-.132-.019.684.684 0 0 0-.422.13.706.706 0 0 0-.26.365l-2.81 9.05a.598.598 0 0 0-.01.018c-4.635.076-8.835 1.33-11.955 3.369a4.456 4.456 0 0 0-3.154-1.32C2.029 12.014 0 14.084 0 16.617c0 1.74.968 3.24 2.371 4.022-.072.439-.115.884-.115 1.338 0 3.39 2.065 6.42 5.297 8.568C10.783 32.693 15.199 34 20.066 34c4.871 0 9.288-1.307 12.518-3.455 3.231-2.148 5.295-5.177 5.295-8.568a8.33 8.33 0 0 0-.096-1.258 4.602 4.602 0 0 0 2.515-4.102c0-2.534-2.03-4.603-4.517-4.603a4.45 4.45 0 0 0-3.213 1.383c-3.002-1.993-7.032-3.247-11.492-3.415l2.492-8.035 6.79 1.63c0 1.967 1.575 3.575 3.509 3.575 1.93 0 3.506-1.607 3.506-3.576 0-1.97-1.577-3.576-3.506-3.576h-.003zM4.516 13.428c.763 0 1.452.284 1.994.742-1.798 1.423-3.117 3.152-3.775 5.066a3.187 3.187 0 0 1-1.346-2.619c0-1.77 1.39-3.19 3.127-3.19zm31.266 0c1.737 0 3.13 1.419 3.13 3.19 0 1.15-.592 2.14-1.48 2.7-.638-1.917-1.937-3.653-3.717-5.084a3.067 3.067 0 0 1 2.066-.806zm-21.725 3.685c1.42 0 2.574 1.183 2.574 2.616 0 1.43-1.155 2.61-2.574 2.61-1.421 0-2.574-1.18-2.574-2.61 0-1.432 1.153-2.616 2.574-2.616zm12.2 0c1.42 0 2.571 1.184 2.571 2.616 0 1.43-1.152 2.61-2.572 2.61-1.42 0-2.574-1.18-2.574-2.61 0-1.433 1.155-2.616 2.574-2.616zm-12.153 9.418h.01a.682.682 0 0 1 .546.246c1.276 1.3 3.52 1.625 5.471 1.625h.04c1.951 0 4.19-.328 5.468-1.629a.687.687 0 0 1 .982.004.715.715 0 0 1-.003 1c-1.742 1.773-4.363 2.037-6.448 2.037h-.047c-2.083 0-4.709-.267-6.449-2.04a.72.72 0 0 1 .043-1.106.685.685 0 0 1 .387-.137z"/></defs></svg>