<svg width="40" height="40" xmlns="http://www.w3.org/2000/svg" xmlns:xlink="http://www.w3.org/1999/xlink"><g transform="translate(4 9)"><use xlink:href="#path_rotation_play_0_fill"/><use xlink:href="#path_rotation_play_1_fill"/><use xlink:href="#path_rotation_play_2_fill"/><use xlink:href="#path_rotation_play_3_fill"/><use xlink:href="#path_rotation_play_4_fill"/></g><defs><path id="path_rotation_play_0_fill" d="M4 10.72c-1.028.408-1.907.897-2.577 1.477C.572 12.935 0 13.877 0 15c0 1.122.572 2.065 1.423 2.803.84.727 2.006 1.31 3.386 1.77 1.185.394 2.597.715 4.191.952v-2.011c-1.348-.214-2.54-.496-3.559-.838-1.245-.415-2.141-.894-2.708-1.385C2.178 15.811 2 15.378 2 15c0-.378.178-.81.733-1.291.318-.275.739-.547 1.267-.806V10.72z"/><path id="path_rotation_play_1_fill" d="M28 12.903V10.72c1.028.408 1.907.897 2.577 1.477C31.428 12.935 32 13.877 32 15c0 1.122-.572 2.065-1.423 2.803-.84.727-2.006 1.31-3.386 1.77-1.185.394-2.596.715-4.191.952v-2.011c1.348-.215 2.54-.496 3.559-.838 1.245-.415 2.141-.894 2.708-1.385.555-.48.733-.913.733-1.291 0-.378-.178-.81-.733-1.291-.318-.275-.739-.547-1.267-.806z"/><path id="path_rotation_play_2_fill" fill-rule="evenodd" d="M14 24l5-4-5-4v8z"/><path id="path_rotation_play_3_fill" d="M16 10a2.5 2.5 0 1 0 0-5 2.5 2.5 0 0 0 0 5z"/><path id="path_rotation_play_4_fill" fill-rule="evenodd" d="M7 2v11h18V2h-5l-2-2h-4l-2 2H7zm9 10a4.5 4.5 0 1 0 0-9 4.5 4.5 0 0 0 0 9zm6-9h2v2h-2V3z"/></defs></svg>