<svg width="40" height="40" xmlns="http://www.w3.org/2000/svg" xmlns:xlink="http://www.w3.org/1999/xlink"><g transform="translate(4 9)"><use xlink:href="#path_rotation_pause_0_fill"/><use xlink:href="#path_rotation_pause_1_fill"/><use xlink:href="#path_rotation_pause_2_fill"/><use xlink:href="#path_rotation_pause_3_fill"/><use xlink:href="#path_rotation_pause_4_fill"/><use xlink:href="#path_rotation_pause_5_fill"/></g><defs><path id="path_rotation_pause_0_fill" d="M18.5 7.5a2.5 2.5 0 1 1-5 0 2.5 2.5 0 0 1 5 0z"/><path id="path_rotation_pause_1_fill" fill-rule="evenodd" d="M7 13V2h5l2-2h4l2 2h5v11H7zm13.502-5.5a4.5 4.5 0 1 1-9 0 4.5 4.5 0 0 1 9 0zM24 3h-2v2h2V3z"/><path id="path_rotation_pause_2_fill" d="M1.423 12.197c.67-.58 1.549-1.07 2.577-1.477v2.184c-.528.258-.95.53-1.267.805C2.178 14.189 2 14.622 2 15c0 .378.178.81.733 1.291.567.491 1.463.97 2.708 1.385 1.02.342 2.21.623 3.557.837v2.012c-1.594-.238-3.005-.559-4.19-.951-1.379-.46-2.545-1.044-3.385-1.772C.572 17.066 0 16.122 0 15s.572-2.065 1.423-2.803z"/><path id="path_rotation_pause_3_fill" d="M28 10.72v2.184c.528.258.95.53 1.267.805.555.48.733.913.733 1.291 0 .378-.178.81-.733 1.291-.567.491-1.463.97-2.708 1.385-1.02.342-2.212.624-3.561.838v2.011c1.595-.237 3.008-.558 4.193-.951 1.38-.46 2.546-1.044 3.386-1.772C31.428 17.066 32 16.122 32 15s-.572-2.065-1.423-2.803c-.67-.58-1.549-1.07-2.577-1.477z"/><path id="path_rotation_pause_4_fill" d="M14.998 17h-2v6h2v-6z"/><path id="path_rotation_pause_5_fill" d="M18.998 23h-2v-6h2v6z"/></defs></svg>