<svg id="_svg_sidebyside_btn" width="40" height="40" xmlns="http://www.w3.org/2000/svg" xmlns:xlink="http://www.w3.org/1999/xlink"><g transform="translate(7 12)"><use xlink:href="#path_sidebyside_0_fill"/><use xlink:href="#path_sidebyside_1_fill"/></g><defs><path id="path_sidebyside_0_fill" d="M5 5l5 3-5 3V5z"/><path id="path_sidebyside_1_fill" fill-rule="evenodd" d="M3 0a3 3 0 0 0-3 3v10a3 3 0 0 0 3 3h20a3 3 0 0 0 3-3V3a3 3 0 0 0-3-3H3zm9 2H3a1 1 0 0 0-1 1v10a1 1 0 0 0 1 1h9V2zm5 3l5 3-5 3V5z"/></defs></svg>