<svg width="40" height="40" viewBox="0 0 40 40" xmlns="http://www.w3.org/2000/svg">
<path fill-rule="evenodd" clip-rule="evenodd" d="M23 3.5C23 5.43311 21.4331 7 19.5 7C18.6338 7 17.8413 6.6853 17.2302 6.16431L9.7522 10.4414C9.91284 10.9319 10 11.4558 10 12C10 12.5444 9.91309 13.0686 9.7522 13.5593L17.23 17.8357C17.8411 17.3145 18.6338 17 19.5 17C21.4331 17 23 18.5669 23 20.5C23 22.4331 21.4331 24 19.5 24C17.5669 24 16 22.4331 16 20.5C16 20.1584 16.0491 19.8284 16.1401 19.5164L8.76001 15.2959C7.84351 16.3406 6.49878 17 5 17C2.23853 17 0 14.7615 0 12C0 9.23853 2.23853 7 5 7C6.49902 7 7.84375 7.65967 8.76025 8.70435L16.1401 4.48364C16.0491 4.17163 16 3.84155 16 3.5C16 1.56689 17.5669 0 19.5 0C21.4331 0 23 1.56689 23 3.5ZM7.12134 14.1213C7.54541 13.6973 7.84326 13.146 7.95312 12.5305C7.98389 12.3582 8 12.1812 8 12C8 11.793 7.979 11.5908 7.93896 11.3955C7.8042 10.7373 7.45264 10.1562 6.96362 9.73193C6.43726 9.27515 5.75146 9 5 9C3.34326 9 2 10.3433 2 12C2 13.6567 3.34326 15 5 15C5.82837 15 6.57837 14.6643 7.12134 14.1213Z" transform="translate(9 8)"/>
</svg>