<svg width="40" height="40" viewBox="0 0 40 40" xmlns="http://www.w3.org/2000/svg">
<path d="M6.01562 4.98633V15.0134L12 20V0L6.01562 4.98633Z" transform="translate(8 10.0005)"/>
<path d="M0 6H4V14.0002H0V6Z" transform="translate(8 10.0005)"/>
<path d="M16.168 14.4448C17.9441 11.7808 17.9441 8.21826 16.168 5.5542L17.832 4.44482C20.0559 7.78076 20.0559 12.2183 17.832 15.5542L16.168 14.4448Z" transform="translate(8 10.0005)"/>
<path d="M20.6807 2.573C23.9534 7.24829 23.916 13.2644 20.7107 17.3855L22.2893 18.6135C26.084 13.7346 26.0466 6.75073 22.3193 1.42603L20.6807 2.573Z" transform="translate(8 10.0005)"/>
</svg>