<svg xmlns="http://www.w3.org/2000/svg" xmlns:xlink="http://www.w3.org/1999/xlink" height="40" width="9"><g transform="translate(2808 -2414)"><clipPath clip-rule="evenodd" id="a"><path fill="#FFF" d="M-2808 2414h9v40h-9v-40z"/></clipPath><g clip-path="url(#a)"><use fill-opacity=".8" transform="translate(-2809 2414)" xlink:href="#path0_fill"/><mask id="b"><use fill="#fff" transform="translate(-2809 2414)" xlink:href="#path0_fill"/></mask><g mask="url(#b)"><use fill="#FFF" fill-opacity=".4" transform="translate(-2809 2414)" xlink:href="#path1_stroke_2x"/></g></g></g><defs id="defs4241"><path d="M10 0H0v28h1l9 12V0z" id="path0_fill"/><path d="M0 0v-1h-1v1h1zm10 0h1v-1h-1v1zm0 40l-.8.6L11 43v-3h-1zM1 28l.8-.6-.3-.4H1v1zm-1 0h-1v1h1v-1zM0 1h10v-2H0v2zm9-1v40h2V0H9zm1.8 39.4l-9-12-1.6 1.2 9 12 1.6-1.2zM1 27H0v2h1v-2zm0 1V0h-2v28h2z" id="path1_stroke_2x"/></defs></svg>