<svg width="56" height="56" xmlns="http://www.w3.org/2000/svg" xmlns:xlink="http://www.w3.org/1999/xlink"><use xlink:href="#path_tumblr_fill" transform="matrix(1.27208 0 0 1.24626 15 10)"/><defs><path id="path_tumblr_fill" d="M6.41 0c-.572 0-1.23.425-1.326 1.21-.4 3.251-1.89 5.2-4.692 6.136L.08 7.45a.115.115 0 0 0-.08.112v5.546c0 .065.05.118.117.118h5.939c.06 0 .104.046.104.103v1.735H2.978v4.994c0 5.453 3.776 8.025 10.76 8.025 2.81 0 5.595-1 6.516-2.213l.185-.242-1.742-5.162c-.02-.048-.06-.08-.111-.08h-3.893c-.05 0-.1-.035-.113-.086a2.749 2.749 0 0 1-.08-.643v-6.314c0-.065.05-.117.117-.117h4.578a.12.12 0 0 0 .117-.118V6.65a.116.116 0 0 0-.117-.118h-4.559a.12.12 0 0 1-.117-.117V.117A.116.116 0 0 0 14.402 0H6.406h.004zm3.184 1.15h3.662a.12.12 0 0 1 .117.118v6.296c0 .065.05.118.117.118h4.559c.06 0 .119.052.119.117v4.16c0 .065-.05.117-.12.117h-4.577a.12.12 0 0 0-.118.117v7.475c.03 1.683.843 2.535 2.422 2.535.637 0 1.364-.148 2.03-.402.06-.024.13.01.152.072l1.166 3.451c.02.044 0 .093-.03.125-.876.843-2.679 1.469-4.404 1.498h-.191c-5.674 0-7.19-4.331-7.19-6.89V12.19a.116.116 0 0 0-.117-.117H4.447a.118.118 0 0 1-.115-.117V8.375a.12.12 0 0 1 .068-.11c2.932-1.141 4.57-3.41 5-6.918.02-.194.188-.199.19-.199l.004.002z"/></defs></svg>