<svg width="56" height="56" xmlns="http://www.w3.org/2000/svg" xmlns:xlink="http://www.w3.org/1999/xlink"><use xlink:href="#path_tw_fill" transform="matrix(1.62536 0 0 1.64705 11 14)"/><defs><path id="path_tw_fill" d="M6.579 17c-2.424 0-4.68-.71-6.579-1.928.336.04.677.06 1.024.06 2.01 0 3.86-.686 5.33-1.837a4.296 4.296 0 0 1-4.01-2.98 4.278 4.278 0 0 0 1.939-.074A4.294 4.294 0 0 1 .84 6.033v-.054c.58.32 1.241.514 1.945.536a4.29 4.29 0 0 1-1.91-3.572c0-.786.212-1.524.581-2.157a12.184 12.184 0 0 0 8.846 4.484 4.292 4.292 0 0 1 7.313-3.914A8.591 8.591 0 0 0 20.341.313a4.305 4.305 0 0 1-1.887 2.374 8.582 8.582 0 0 0 2.465-.676 8.721 8.721 0 0 1-2.142 2.222c.011.184.013.37.013.555C18.79 10.46 14.473 17 6.58 17"/></defs></svg>