<svg width="56" height="56" xmlns="http://www.w3.org/2000/svg" xmlns:xlink="http://www.w3.org/1999/xlink"><use xlink:href="#path_vk_fill" transform="matrix(.52297 0 0 .52297 10 10)"/><defs><path id="path_vk_fill" fill-rule="evenodd" d="M10.607 0C4.749 0 0 4.75 0 10.607V58.23c0 5.859 4.749 10.608 10.607 10.608H58.23c5.858 0 10.607-4.75 10.607-10.607V10.608C68.837 4.749 64.088 0 58.23 0H10.607zM31.63 21.43c.575-.01 1.183 0 1.815 0 1.969.02 2.538.142 3.306.328 2.322.56 1.534 2.725 1.534 7.916 0 1.662-.3 4 .9 4.775.516.333 1.777.05 4.932-5.306 1.494-2.54 2.615-5.524 2.615-5.524s.244-.532.625-.76c.389-.233.916-.162.916-.162l7.082-.043s2.13-.253 2.475.707c.36 1.009-.796 3.362-3.69 7.22-4.752 6.333-5.28 5.742-1.336 9.403 3.77 3.499 4.55 5.201 4.678 5.413 1.56 2.587-1.73 2.79-1.73 2.79l-6.292.088s-1.351.267-3.13-.955c-2.353-1.615-4.574-5.816-6.303-5.267-1.753.556-1.697 4.336-1.697 4.336s.01.806-.387 1.236c-.435.468-1.285.563-1.285.563H33.84s-6.213.373-11.685-5.325C16.188 36.65 10.919 24.32 10.919 24.32s-.304-.808.03-1.199c.37-.44 1.38-.467 1.38-.467l6.733-.045s.634.106 1.088.44c.374.275.584.789.584.789s1.09 2.751 2.53 5.24c2.811 4.86 4.121 5.923 5.075 5.402 1.392-.758.975-6.869.975-6.869s.03-2.217-.701-3.205c-.562-.764-1.622-.99-2.09-1.052-.38-.051.243-.93 1.049-1.325.908-.445 2.338-.575 4.062-.601l-.004.002z"/></defs></svg>