<svg width="56" height="56" xmlns="http://www.w3.org/2000/svg" xmlns:xlink="http://www.w3.org/1999/xlink"><use xlink:href="#path_weibo_fill" transform="matrix(.05795 0 0 .05961 8 10)"/><defs><path id="path_weibo_fill" d="M602.193 129.323c-23.2-25.7-57.4-35.5-88.9-28.7-12.9 2.7-21.1 15.5-18.4 28.4 2.8 12.9 15.5 21.1 28.3 18.3 15.4-3.3 32.2 1.5 43.5 14 11.3 12.6 14.4 29.7 9.5 44.7-4 12.5 2.8 26 15.4 30.1 12.6 4 26-2.8 30.1-15.4 9.9-30.7 3.7-65.7-19.5-91.4zm73.1-66c-47.6-52.8-117.8-72.9-182.6-59.1-15 3.2-24.5 18-21.3 32.9 3.2 15 17.9 24.5 32.9 21.3 46.1-9.8 96 4.5 129.8 42 33.8 37.5 43 88.6 28.5 133.4-4.7 14.6 3.3 30.2 17.9 34.9 14.6 4.7 30.2-3.3 34.9-17.8v-.1c20.4-62.9 7.5-134.8-40.1-187.5zM304.587 82.87c-51.108-.937-128.123 39.569-196.597 108.044C39.69 259.213 0 331.714 0 394.414c0 119.8 153.704 192.716 304.005 192.716 197.1 0 328.179-114.514 328.179-205.414.142-55-46.204-86.189-87.804-99.089-10.199-3.1-17.195-5.092-11.894-18.492 11.6-29.1 12.794-54.224.193-72.224-23.5-33.6-87.892-31.787-161.691-.887 0 0-23.19 10.094-17.189-8.206 11.299-36.5 9.587-67-8.014-84.7-9.999-10.025-24.162-14.936-41.198-15.249zm-5.905 168.041c135.5 0 245.42 68.42 245.42 152.82 0 84.4-109.92 152.792-245.42 152.792S53.289 488.13 53.289 403.73s109.893-152.82 245.393-152.82zm-14.89 64.654c-47.302.501-93.659 27.002-113.809 67.871-25.3 51.3-.792 108.297 56.807 126.897 59.8 19.3 130.207-10.297 154.705-65.597 24.201-54.2-5.998-109.906-65.098-125.206-10.706-2.794-21.689-4.08-32.605-3.965zm15.943 66.984c1.898-.035 3.77.27 5.545.97 7.199 2.6 9.823 10.694 5.822 17.994-4.2 7.2-13.51 10.624-20.71 7.624-7.2-2.9-9.396-11.021-5.296-18.021 3.149-5.25 8.944-8.464 14.639-8.567zM244.7 399.432c5.047.066 10.045 1.045 14.695 2.995 18.8 8.1 24.791 29.402 13.39 48.102-11.598 18.5-36.5 26.605-55.199 18.105-18.4-8.4-23.882-29.92-12.283-48.02 8.625-13.5 24.262-21.379 39.397-21.182z"/></defs></svg>