<?xml version="1.0" encoding="UTF-8" standalone="no"?>
<!-- Created with Inkscape (http://www.inkscape.org/) -->

<svg
   xmlns:dc="http://purl.org/dc/elements/1.1/"
   xmlns:cc="http://creativecommons.org/ns#"
   xmlns:rdf="http://www.w3.org/1999/02/22-rdf-syntax-ns#"
   xmlns:svg="http://www.w3.org/2000/svg"
   xmlns="http://www.w3.org/2000/svg"
   xmlns:sodipodi="http://sodipodi.sourceforge.net/DTD/sodipodi-0.dtd"
   xmlns:inkscape="http://www.inkscape.org/namespaces/inkscape"
   width="660"
   height="340"
   id="svg2"
   version="1.1"
   inkscape:version="0.48.4 r9939"
   sodipodi:docname="camera_space_world_space_h.svg">
  <defs
     id="defs4" />
  <sodipodi:namedview
     id="base"
     pagecolor="#ffffff"
     bordercolor="#666666"
     borderopacity="1.0"
     inkscape:pageopacity="0.0"
     inkscape:pageshadow="2"
     inkscape:zoom="1.4142136"
     inkscape:cx="423.38173"
     inkscape:cy="261.97103"
     inkscape:document-units="px"
     inkscape:current-layer="layer1"
     showgrid="true"
     inkscape:window-width="1855"
     inkscape:window-height="1176"
     inkscape:window-x="65"
     inkscape:window-y="24"
     inkscape:window-maximized="1"
     showborder="true">
    <inkscape:grid
       type="xygrid"
       id="grid3775"
       empspacing="5"
       visible="true"
       enabled="true"
       snapvisiblegridlinesonly="true" />
  </sodipodi:namedview>
  <metadata
     id="metadata7">
    <rdf:RDF>
      <cc:Work
         rdf:about="">
        <dc:format>image/svg+xml</dc:format>
        <dc:type
           rdf:resource="http://purl.org/dc/dcmitype/StillImage" />
        <dc:title />
      </cc:Work>
    </rdf:RDF>
  </metadata>
  <g
     inkscape:label="Layer 1"
     inkscape:groupmode="layer"
     id="layer1"
     transform="translate(0,-712.36218)">
    <path
       style="fill:#ffffff;fill-rule:evenodd;stroke:#000000;stroke-width:1.5;stroke-linecap:butt;stroke-linejoin:miter;stroke-miterlimit:4;stroke-opacity:1;stroke-dasharray:none;stroke-dashoffset:0"
       d="m 121.23825,758.66678 c -13.29107,5.9717 -25.288629,14.30957 -35.456351,24.47729 -19.564711,19.5647 -32.354352,45.90448 -34.547836,75.1982"
       id="path8966" />
    <path
       id="path3773"
       style="fill:#ffffff;fill-rule:evenodd;stroke:#000000;stroke-width:1;stroke-linecap:butt;stroke-linejoin:miter;stroke-miterlimit:4;stroke-opacity:1;stroke-dasharray:12,12;stroke-dashoffset:0"
       d="m 51.234063,858.34227 c -0.222948,2.97745 -0.336428,5.98541 -0.336428,9.01987 M 169.99997,748.2598 c -17.37378,0 -33.87871,3.72002 -48.76172,10.40698 m 167.86406,108.69536 c 0,-65.7784 -53.32393,-119.10234 -119.10234,-119.10234 m 69.07496,216.13971 c 30.28189,-21.59458 50.02738,-57.01007 50.02738,-97.03737 m -238.204675,0 c 0,10.41178 1.335997,20.51153 3.84592,30.13717 m 115.256415,88.96517 c 25.75111,0 49.59346,-8.17236 69.07496,-22.06497 M 54.743555,897.49931 c 13.346965,51.18608 59.889795,88.96517 115.256415,88.96517" />
    <path
       style="fill:none;stroke:#ff0000;stroke-width:1.5;stroke-linecap:butt;stroke-linejoin:miter;stroke-miterlimit:4;stroke-opacity:1;stroke-dasharray:none"
       d="m 73.075456,797.89276 -1.446983,2.07502 7.587855,13.00111 8.681676,-12.45022 z"
       id="path3806"
       inkscape:connector-curvature="0" />
    <path
       sodipodi:type="arc"
       style="fill:#000000;fill-rule:evenodd;stroke:#000000;stroke-width:1px;stroke-linecap:butt;stroke-linejoin:miter;stroke-opacity:1"
       id="path3810"
       sodipodi:cx="135"
       sodipodi:cy="512.36218"
       sodipodi:rx="10"
       sodipodi:ry="10"
       d="m 145,512.36218 c 0,5.52285 -4.47715,10 -10,10 -5.52285,0 -10,-4.47715 -10,-10 0,-5.52284 4.47715,-10 10,-10 5.52285,0 10,4.47716 10,10 z"
       transform="matrix(0.125,0,0,0.125,153.12501,803.22763)" />
    <text
       xml:space="preserve"
       style="font-size:10px;font-style:normal;font-weight:normal;line-height:125%;letter-spacing:0px;word-spacing:0px;fill:#000000;fill-opacity:1;stroke:none;font-family:Sans"
       x="155"
       y="882.36218"
       id="text3812"
       sodipodi:linespacing="125%"><tspan
         sodipodi:role="line"
         id="tspan3814"
         x="155"
         y="882.36218">O</tspan></text>
    <text
       xml:space="preserve"
       style="font-size:10px;font-style:normal;font-weight:normal;line-height:125%;letter-spacing:0px;word-spacing:0px;fill:#000000;fill-opacity:1;stroke:none;font-family:Sans"
       x="100"
       y="757.36218"
       id="text3230"
       sodipodi:linespacing="125%"><tspan
         sodipodi:role="line"
         id="tspan3232"
         x="100"
         y="757.36218">-30°</tspan></text>
    <text
       xml:space="preserve"
       style="font-size:10px;font-style:normal;font-weight:normal;line-height:125%;letter-spacing:0px;word-spacing:0px;fill:#000000;fill-opacity:1;stroke:none;font-family:Sans"
       x="20"
       y="852.36218"
       id="text3234"
       sodipodi:linespacing="125%"><tspan
         sodipodi:role="line"
         id="tspan3236"
         x="20"
         y="852.36218">+30°</tspan></text>
    <text
       xml:space="preserve"
       style="font-size:10px;font-style:normal;font-weight:normal;line-height:125%;letter-spacing:0px;word-spacing:0px;fill:#000000;fill-opacity:1;stroke:none;font-family:Sans"
       x="180"
       y="742.36218"
       id="text4020"
       sodipodi:linespacing="125%"><tspan
         sodipodi:role="line"
         id="tspan4022"
         x="180"
         y="742.36218">0°</tspan></text>
    <path
       id="path4031"
       style="fill:none;stroke:#000000;stroke-width:1.5;stroke-linecap:butt;stroke-linejoin:miter;stroke-miterlimit:4;stroke-opacity:1;stroke-dasharray:none"
       d="m 51.447796,857.9509 -4.136423,-10.38698 m 3.9496,10.37113 5.827715,-9.54136 z"
       inkscape:connector-curvature="0" />
    <path
       id="path4031-3"
       style="fill:none;stroke:#000000;stroke-width:1.5;stroke-linecap:butt;stroke-linejoin:miter;stroke-miterlimit:4;stroke-opacity:1;stroke-dasharray:none"
       d="m 119.90813,759.15984 -6.60193,9.02298 m 6.68777,-8.85628 -11.17955,0.13231 z"
       inkscape:connector-curvature="0" />
    <text
       xml:space="preserve"
       style="font-size:20px;font-style:normal;font-weight:normal;line-height:125%;letter-spacing:0px;word-spacing:0px;fill:#000000;fill-opacity:1;stroke:none;font-family:Sans"
       x="100"
       y="1022.3622"
       id="text8876"
       sodipodi:linespacing="125%"><tspan
         sodipodi:role="line"
         id="tspan8878"
         x="100"
         y="1022.3622">Camera Space</tspan></text>
    <text
       xml:space="preserve"
       style="font-size:20px;font-style:normal;font-weight:normal;line-height:125%;letter-spacing:0px;word-spacing:0px;fill:#000000;fill-opacity:1;stroke:none;font-family:Sans"
       x="430"
       y="1022.3622"
       id="text8880"
       sodipodi:linespacing="125%"><tspan
         sodipodi:role="line"
         id="tspan8882"
         x="430"
         y="1022.3622">World Space</tspan></text>
    <path
       style="fill:none;stroke:#000000;stroke-width:1.00844443px;stroke-linecap:butt;stroke-linejoin:miter;stroke-opacity:1"
       d="m 170,996.94989 0,-274.57923"
       id="path8884"
       inkscape:connector-curvature="0" />
    <path
       style="fill:none;stroke:#000000;stroke-width:1;stroke-linecap:butt;stroke-linejoin:miter;stroke-opacity:1;stroke-miterlimit:4;stroke-dasharray:none"
       d="M 164.42017,737.2349 170,722.18616 l 5.57983,15.04874"
       id="path8886"
       inkscape:connector-curvature="0" />
    <text
       xml:space="preserve"
       style="font-size:20px;font-style:normal;font-weight:normal;line-height:125%;letter-spacing:0px;word-spacing:0px;fill:#000000;fill-opacity:1;stroke:none;font-family:Sans"
       x="180"
       y="887.36218"
       id="text8888"
       sodipodi:linespacing="125%"><tspan
         sodipodi:role="line"
         id="tspan8890"
         x="180"
         y="887.36218">z</tspan></text>
    <path
       style="fill:none;stroke:#000000;stroke-width:1.00031734px;stroke-linecap:butt;stroke-linejoin:miter;stroke-opacity:1"
       d="m 315.20169,867.36218 -275.174573,0"
       id="path8910"
       inkscape:connector-curvature="0" />
    <text
       xml:space="preserve"
       style="font-size:40px;font-style:normal;font-weight:normal;line-height:125%;letter-spacing:0px;word-spacing:0px;fill:#000000;fill-opacity:1;stroke:none;font-family:Sans"
       x="31.466251"
       y="117.26137"
       id="text8912"
       sodipodi:linespacing="125%"
       transform="translate(0,712.36218)"><tspan
         sodipodi:role="line"
         id="tspan8914" /></text>
    <text
       xml:space="preserve"
       style="font-size:20px;font-style:normal;font-weight:normal;line-height:125%;letter-spacing:0px;word-spacing:0px;fill:#000000;fill-opacity:1;stroke:none;font-family:Sans"
       x="300"
       y="887.36218"
       id="text8916"
       sodipodi:linespacing="125%"><tspan
         sodipodi:role="line"
         id="tspan8918"
         x="300"
         y="887.36218">x</tspan></text>
    <path
       style="fill:none;stroke:#000000;stroke-width:1;stroke-linecap:butt;stroke-linejoin:miter;stroke-miterlimit:4;stroke-opacity:1;stroke-dasharray:none"
       d="m 299.82155,862.18072 15.23624,5.04539 -14.84249,6.10732"
       id="path8886-8"
       inkscape:connector-curvature="0" />
    <path
       style="fill:none;stroke:#000000;stroke-width:0.98889619;stroke-linecap:butt;stroke-linejoin:miter;stroke-miterlimit:4;stroke-opacity:1;stroke-dasharray:7.91116964, 7.91116964;stroke-dashoffset:0"
       d="m 170.00555,867.36773 -98.773665,-69.304"
       id="path8939"
       inkscape:connector-curvature="0" />
    <path
       style="fill:none;stroke:#000000;stroke-width:1.5;stroke-linecap:butt;stroke-linejoin:miter;stroke-opacity:1;stroke-miterlimit:4;stroke-dasharray:none"
       d="m 120.59021,758.59391 49.4155,108.77398 -118.597205,-9.88854"
       id="path8941"
       inkscape:connector-curvature="0" />
    <path
       id="path3871"
       style="fill:#ffffff;fill-rule:evenodd;stroke:#000000;stroke-width:1.5;stroke-linecap:butt;stroke-linejoin:miter;stroke-miterlimit:4;stroke-opacity:1;stroke-dasharray:none;stroke-dashoffset:0"
       d="m 494.99997,748.2598 c -17.37378,0 -33.87871,3.72002 -48.76172,10.40698 m 109.55007,6.25245 C 537.99328,754.3371 517.20634,748.2598 494.99997,748.2598 m -48.76172,10.40698 c -4.02163,1.80693 -7.92484,3.83049 -11.69476,6.05583" />
    <path
       id="path3773-0"
       style="fill:#ffffff;fill-rule:evenodd;stroke:#000000;stroke-width:1;stroke-linecap:butt;stroke-linejoin:miter;stroke-miterlimit:4;stroke-opacity:1;stroke-dasharray:12, 12;stroke-dashoffset:0"
       d="m 494.99997,986.4645 c 21.73275,0 42.10597,-5.82086 59.64567,-15.98853 m -120.56505,-0.74894 c 17.824,10.63029 38.65848,16.73747 60.91938,16.73747 M 376.23406,858.34227 c -0.22295,2.97745 -0.33643,5.98541 -0.33643,9.01987 m 238.20468,0 c 0,-43.57204 -23.3976,-81.67928 -58.31399,-102.44291 m 8.28661,199.48027 c 30.28189,-21.59457 50.02738,-57.01006 50.02738,-97.03736 m -238.20468,0 c 0,10.41178 1.336,20.51153 3.84592,30.13717 m 174.90209,72.97666 c 3.24308,-1.87999 6.38928,-3.90858 9.42929,-6.07647 M 379.74356,897.49931 c 7.98064,30.60603 27.82973,56.41869 54.33703,72.22772 m 0.4629,-205.00442 c -8.68926,5.12918 -16.67043,11.3303 -23.76159,18.42146 -19.56471,19.56471 -32.35435,45.90448 -34.54784,75.1982" />
    <path
       style="fill:none;stroke:#ff0000;stroke-width:1.5;stroke-linecap:butt;stroke-linejoin:miter;stroke-miterlimit:4;stroke-opacity:1;stroke-dasharray:1.5,1.5;stroke-dashoffset:0"
       d="m 399.32546,797.89276 -1.44699,2.07502 7.58786,13.00111 8.68167,-12.45022 z"
       id="path3806-9"
       inkscape:connector-curvature="0" />
    <path
       sodipodi:type="arc"
       style="fill:#000000;fill-rule:evenodd;stroke:#000000;stroke-width:1px;stroke-linecap:butt;stroke-linejoin:miter;stroke-opacity:1"
       id="path3810-2"
       sodipodi:cx="135"
       sodipodi:cy="512.36218"
       sodipodi:rx="10"
       sodipodi:ry="10"
       d="m 145,512.36218 c 0,5.52285 -4.47715,10 -10,10 -5.52285,0 -10,-4.47715 -10,-10 0,-5.52284 4.47715,-10 10,-10 5.52285,0 10,4.47716 10,10 z"
       transform="matrix(0.125,0,0,0.125,478.12501,803.22763)" />
    <text
       xml:space="preserve"
       style="font-size:10px;font-style:normal;font-weight:normal;line-height:125%;letter-spacing:0px;word-spacing:0px;fill:#000000;fill-opacity:1;stroke:none;font-family:Sans"
       x="480"
       y="882.36218"
       id="text3812-1"
       sodipodi:linespacing="125%"><tspan
         sodipodi:role="line"
         id="tspan3814-7"
         x="480"
         y="882.36218">O</tspan></text>
    <text
       xml:space="preserve"
       style="font-size:10px;font-style:normal;font-weight:normal;line-height:125%;letter-spacing:0px;word-spacing:0px;fill:#000000;fill-opacity:1;stroke:none;font-family:Sans"
       x="555"
       y="757.36218"
       id="text3230-8"
       sodipodi:linespacing="125%"><tspan
         sodipodi:role="line"
         id="tspan3232-7"
         x="555"
         y="757.36218">-30°</tspan></text>
    <text
       xml:space="preserve"
       style="font-size:10px;font-style:normal;font-weight:normal;line-height:125%;letter-spacing:0px;word-spacing:0px;fill:#000000;fill-opacity:1;stroke:none;font-family:Sans"
       x="415"
       y="757.36218"
       id="text3234-0"
       sodipodi:linespacing="125%"><tspan
         sodipodi:role="line"
         id="tspan3236-6"
         x="415"
         y="757.36218">+30°</tspan></text>
    <text
       xml:space="preserve"
       style="font-size:10px;font-style:normal;font-weight:normal;line-height:125%;letter-spacing:0px;word-spacing:0px;fill:#000000;fill-opacity:1;stroke:none;font-family:Sans"
       x="505"
       y="742.36218"
       id="text4020-8"
       sodipodi:linespacing="125%"><tspan
         sodipodi:role="line"
         id="tspan4022-8"
         x="505"
         y="742.36218">0°</tspan></text>
    <path
       id="path4031-6"
       style="fill:none;stroke:#000000;stroke-width:1.5;stroke-linecap:butt;stroke-linejoin:miter;stroke-miterlimit:4;stroke-opacity:1;stroke-dasharray:none"
       d="m 435.14557,764.44907 6.71081,-8.9423 m -6.79457,8.77454 11.1803,0.003 z"
       inkscape:connector-curvature="0" />
    <path
       id="path4031-3-3"
       style="fill:none;stroke:#000000;stroke-width:1.5;stroke-linecap:butt;stroke-linejoin:miter;stroke-miterlimit:4;stroke-opacity:1;stroke-dasharray:none"
       d="m 555.6178,764.72341 -11.17838,-0.20832 m 11.09143,0.37444 -6.54043,-9.06766 z"
       inkscape:connector-curvature="0" />
    <path
       style="fill:none;stroke:#000000;stroke-width:1.00844443px;stroke-linecap:butt;stroke-linejoin:miter;stroke-opacity:1"
       d="m 495,996.9499 0,-274.57924"
       id="path8884-7"
       inkscape:connector-curvature="0" />
    <path
       style="fill:none;stroke:#000000;stroke-width:1;stroke-linecap:butt;stroke-linejoin:miter;stroke-miterlimit:4;stroke-opacity:1;stroke-dasharray:none"
       d="M 489.42017,737.2349 495,722.18616 l 5.57983,15.04874"
       id="path8886-9"
       inkscape:connector-curvature="0" />
    <path
       style="fill:none;stroke:#000000;stroke-width:0.93574423px;stroke-linecap:butt;stroke-linejoin:miter;stroke-opacity:1"
       d="m 640.24882,867.29968 -275.24764,0"
       id="path8910-6"
       inkscape:connector-curvature="0" />
    <text
       xml:space="preserve"
       style="font-size:20px;font-style:normal;font-weight:normal;line-height:125%;letter-spacing:0px;word-spacing:0px;fill:#000000;fill-opacity:1;stroke:none;font-family:Sans"
       x="625"
       y="887.36218"
       id="text8916-0"
       sodipodi:linespacing="125%"><tspan
         sodipodi:role="line"
         id="tspan8918-3"
         x="625"
         y="887.36218">x</tspan></text>
    <path
       style="fill:none;stroke:#000000;stroke-width:1;stroke-linecap:butt;stroke-linejoin:miter;stroke-miterlimit:4;stroke-opacity:1;stroke-dasharray:none"
       d="m 625.63266,861.65797 14.99791,5.71504 -15.09834,5.44416"
       id="path8886-8-1"
       inkscape:connector-curvature="0" />
    <path
       style="fill:none;stroke:#000000;stroke-width:1.5;stroke-linecap:butt;stroke-linejoin:miter;stroke-miterlimit:4;stroke-opacity:1;stroke-dasharray:none"
       d="M 555.61655,764.0541 495.05806,867.04119 434.93367,764.33706"
       id="path8941-0"
       inkscape:connector-curvature="0" />
    <path
       style="fill:none;stroke:#000000;stroke-width:0.98889619;stroke-linecap:butt;stroke-linejoin:miter;stroke-miterlimit:4;stroke-opacity:1;stroke-dasharray:7.91116964, 7.91116964;stroke-dashoffset:0"
       d="m 495.00555,866.86773 -98.77366,-69.304"
       id="path8939-5"
       inkscape:connector-curvature="0" />
    <path
       style="fill:none;stroke:#ff0000;stroke-width:1.5;stroke-linecap:butt;stroke-linejoin:miter;stroke-miterlimit:4;stroke-opacity:1;stroke-dasharray:none"
       d="m 496.31775,748.30857 -2.52965,-0.0187 -6.42468,13.61352 15.17785,0.11175 z"
       id="path3806-2"
       inkscape:connector-curvature="0" />
    <path
       sodipodi:type="arc"
       style="fill:#ffffff;fill-rule:evenodd;stroke:#000000;stroke-width:1px;stroke-linecap:butt;stroke-linejoin:miter;stroke-opacity:1"
       id="path9399"
       sodipodi:cx="32.5"
       sodipodi:cy="252.5"
       sodipodi:rx="7.5"
       sodipodi:ry="7.5"
       d="m 40,252.5 c 0,4.14214 -3.357864,7.5 -7.5,7.5 -4.142136,0 -7.5,-3.35786 -7.5,-7.5 0,-4.14214 3.357864,-7.5 7.5,-7.5 4.142136,0 7.5,3.35786 7.5,7.5 z"
       transform="translate(137.47576,614.89796)" />
    <path
       sodipodi:type="arc"
       style="fill:#000000;fill-rule:evenodd;stroke:#000000;stroke-width:1px;stroke-linecap:butt;stroke-linejoin:miter;stroke-opacity:1"
       id="path9405"
       sodipodi:cx="87.5"
       sodipodi:cy="197.5"
       sodipodi:rx="2.5"
       sodipodi:ry="2.5"
       d="m 90,197.5 c 0,1.38071 -1.119288,2.5 -2.5,2.5 -1.380712,0 -2.5,-1.11929 -2.5,-2.5 0,-1.38071 1.119288,-2.5 2.5,-2.5 1.380712,0 2.5,1.11929 2.5,2.5 z"
       transform="translate(82.628978,669.89022)" />
    <path
       sodipodi:type="arc"
       style="fill:#ffffff;fill-rule:evenodd;stroke:#000000;stroke-width:1px;stroke-linecap:butt;stroke-linejoin:miter;stroke-opacity:1"
       id="path9399-3"
       sodipodi:cx="32.5"
       sodipodi:cy="252.5"
       sodipodi:rx="7.5"
       sodipodi:ry="7.5"
       d="m 40,252.5 c 0,4.14214 -3.357864,7.5 -7.5,7.5 -4.142136,0 -7.5,-3.35786 -7.5,-7.5 0,-4.14214 3.357864,-7.5 7.5,-7.5 4.142136,0 7.5,3.35786 7.5,7.5 z"
       transform="translate(462.527,614.89022)" />
    <path
       sodipodi:type="arc"
       style="fill:#000000;fill-rule:evenodd;stroke:#000000;stroke-width:1px;stroke-linecap:butt;stroke-linejoin:miter;stroke-opacity:1"
       id="path9405-8"
       sodipodi:cx="87.5"
       sodipodi:cy="197.5"
       sodipodi:rx="2.5"
       sodipodi:ry="2.5"
       d="m 90,197.5 c 0,1.38071 -1.119288,2.5 -2.5,2.5 -1.380712,0 -2.5,-1.11929 -2.5,-2.5 0,-1.38071 1.119288,-2.5 2.5,-2.5 1.380712,0 2.5,1.11929 2.5,2.5 z"
       transform="translate(407.68022,669.88248)" />
    <text
       xml:space="preserve"
       style="font-size:20px;font-style:normal;font-weight:normal;line-height:125%;letter-spacing:0px;word-spacing:0px;fill:#000000;fill-opacity:1;stroke:none;font-family:Sans"
       x="150"
       y="732.36218"
       id="text8916-2"
       sodipodi:linespacing="125%"><tspan
         sodipodi:role="line"
         id="tspan8918-8"
         x="150"
         y="732.36218">y</tspan></text>
    <text
       xml:space="preserve"
       style="font-size:20px;font-style:normal;font-weight:normal;line-height:125%;letter-spacing:0px;word-spacing:0px;fill:#000000;fill-opacity:1;stroke:none;font-family:Sans"
       x="475"
       y="732.36218"
       id="text8916-2-4"
       sodipodi:linespacing="125%"><tspan
         sodipodi:role="line"
         id="tspan8918-8-3"
         x="475"
         y="732.36218">y</tspan></text>
    <text
       xml:space="preserve"
       style="font-size:20px;font-style:normal;font-weight:normal;line-height:125%;letter-spacing:0px;word-spacing:0px;fill:#000000;fill-opacity:1;stroke:none;font-family:Sans"
       x="505"
       y="887.36218"
       id="text8888-5"
       sodipodi:linespacing="125%"><tspan
         sodipodi:role="line"
         id="tspan8890-1"
         x="505"
         y="887.36218">z</tspan></text>
  </g>
</svg>
