<?xml version="1.0" encoding="UTF-8" standalone="no"?>
<!-- Created with Inkscape (http://www.inkscape.org/) -->

<svg
   xmlns:dc="http://purl.org/dc/elements/1.1/"
   xmlns:cc="http://creativecommons.org/ns#"
   xmlns:rdf="http://www.w3.org/1999/02/22-rdf-syntax-ns#"
   xmlns:svg="http://www.w3.org/2000/svg"
   xmlns="http://www.w3.org/2000/svg"
   xmlns:sodipodi="http://sodipodi.sourceforge.net/DTD/sodipodi-0.dtd"
   xmlns:inkscape="http://www.inkscape.org/namespaces/inkscape"
   width="350"
   height="350"
   id="svg2"
   version="1.1"
   inkscape:version="0.48.4 r9939"
   sodipodi:docname="distance_limits.svg">
  <defs
     id="defs4" />
  <sodipodi:namedview
     id="base"
     pagecolor="#ffffff"
     bordercolor="#666666"
     borderopacity="1.0"
     inkscape:pageopacity="0.0"
     inkscape:pageshadow="2"
     inkscape:zoom="1.4142136"
     inkscape:cx="-68.367068"
     inkscape:cy="154.61661"
     inkscape:document-units="px"
     inkscape:current-layer="layer1"
     showgrid="true"
     inkscape:window-width="1855"
     inkscape:window-height="1176"
     inkscape:window-x="65"
     inkscape:window-y="24"
     inkscape:window-maximized="1"
     showborder="true">
    <inkscape:grid
       type="xygrid"
       id="grid3775"
       empspacing="5"
       visible="true"
       enabled="true"
       snapvisiblegridlinesonly="true" />
  </sodipodi:namedview>
  <metadata
     id="metadata7">
    <rdf:RDF>
      <cc:Work
         rdf:about="">
        <dc:format>image/svg+xml</dc:format>
        <dc:type
           rdf:resource="http://purl.org/dc/dcmitype/StillImage" />
        <dc:title />
      </cc:Work>
    </rdf:RDF>
  </metadata>
  <g
     inkscape:label="Layer 1"
     inkscape:groupmode="layer"
     id="layer1"
     transform="translate(0,-702.36218)">
    <path
       sodipodi:type="arc"
       style="fill:#ffffff;fill-rule:evenodd;stroke:#000000;stroke-width:0.9888445;stroke-linecap:butt;stroke-linejoin:miter;stroke-miterlimit:4;stroke-opacity:1;stroke-dasharray:7.91075599,7.91075599;stroke-dashoffset:0"
       id="path3771"
       sodipodi:cx="300"
       sodipodi:cy="412.36218"
       sodipodi:rx="152.85715"
       sodipodi:ry="152.85715"
       d="m 452.85715,412.36218 c 0,84.42067 -68.43648,152.85715 -152.85715,152.85715 -84.42067,0 -152.85715,-68.43648 -152.85715,-152.85715 0,-84.42067 68.43648,-152.85714 152.85715,-152.85714 84.42067,0 152.85715,68.43647 152.85715,152.85714 z"
       transform="matrix(1.0112931,0,0,1.0112696,-128.39511,460.34924)" />
    <path
       sodipodi:type="arc"
       style="fill:#ffffff;fill-rule:evenodd;stroke:#000000;stroke-width:1.09749558;stroke-linecap:butt;stroke-linejoin:miter;stroke-miterlimit:4;stroke-opacity:1;stroke-dasharray:none;stroke-dashoffset:0"
       id="path3773"
       sodipodi:cx="321.42856"
       sodipodi:cy="726.64789"
       sodipodi:rx="87.14286"
       sodipodi:ry="87.14286"
       d="m 408.57142,726.64789 c 0,48.12767 -39.01519,87.14286 -87.14286,87.14286 -48.12767,0 -87.14286,-39.01519 -87.14286,-87.14286 0,-48.12767 39.01519,-87.14286 87.14286,-87.14286 48.12767,0 87.14286,39.01519 87.14286,87.14286 z"
       transform="matrix(1.3667481,0,0,1.3667481,-264.3119,-115.78248)" />
    <path
       sodipodi:type="arc"
       style="fill:#ffffff;fill-rule:evenodd;stroke:#000000;stroke-width:1.03095973;stroke-linecap:butt;stroke-linejoin:miter;stroke-miterlimit:4;stroke-opacity:1;stroke-dasharray:8.24767781,8.24767781;stroke-dashoffset:0"
       id="path3773-7"
       sodipodi:cx="321.42856"
       sodipodi:cy="726.64789"
       sodipodi:rx="87.14286"
       sodipodi:ry="87.14286"
       d="m 408.57142,726.64789 c 0,48.12767 -39.01519,87.14286 -87.14286,87.14286 -48.12767,0 -87.14286,-39.01519 -87.14286,-87.14286 0,-48.12767 39.01519,-87.14286 87.14286,-87.14286 48.12767,0 87.14286,39.01519 87.14286,87.14286 z"
       transform="matrix(0.96999059,0,0,0.9699494,-136.61311,172.37005)" />
    <path
       style="fill:none;stroke:#ff0000;stroke-width:1.50000000000000000;stroke-linecap:butt;stroke-linejoin:miter;stroke-miterlimit:4;stroke-opacity:1;stroke-dasharray:none"
       d="m 173.91372,995.62095 2.52971,0 6.32427,-13.66039 -15.17825,0 z"
       id="path3806"
       inkscape:connector-curvature="0" />
    <path
       sodipodi:type="arc"
       style="fill:#000000;fill-rule:evenodd;stroke:#000000;stroke-width:1px;stroke-linecap:butt;stroke-linejoin:miter;stroke-opacity:1"
       id="path3810"
       sodipodi:cx="135"
       sodipodi:cy="512.36218"
       sodipodi:rx="10"
       sodipodi:ry="10"
       d="m 145,512.36218 c 0,5.52285 -4.47715,10 -10,10 -5.52285,0 -10,-4.47715 -10,-10 0,-5.52284 4.47715,-10 10,-10 5.52285,0 10,4.47716 10,10 z"
       transform="matrix(0.125,0,0,0.125,158.12501,813.22763)" />
    <text
       xml:space="preserve"
       style="font-size:10px;font-style:normal;font-weight:normal;line-height:125%;letter-spacing:0px;word-spacing:0px;fill:#000000;fill-opacity:1;stroke:none;font-family:Sans"
       x="180"
       y="872.36218"
       id="text3812"
       sodipodi:linespacing="125%"><tspan
         sodipodi:role="line"
         id="tspan3814"
         x="180"
         y="872.36218">O</tspan></text>
    <path
       style="fill:none;stroke:#000000;stroke-width:1.5;stroke-linecap:butt;stroke-linejoin:miter;stroke-opacity:1;stroke-miterlimit:4;stroke-dasharray:none"
       d="m 175.13267,995.43245 0,-33.25629 5.01203,9.5018 -5.01203,-9.5018 -5.01203,9.5018 5.01203,-9.5018 z"
       id="path2998"
       inkscape:connector-curvature="0" />
    <path
       style="fill:none;stroke:#000000;stroke-width:1.5;stroke-linecap:butt;stroke-linejoin:miter;stroke-opacity:1;stroke-miterlimit:4;stroke-dasharray:none"
       d="m 175.1895,996.67789 -0.12553,34.73561 -4.9659,-9.9443 4.9659,9.9443 5.03763,-9.9047 -5.03763,9.9047 z"
       id="path2998-0"
       inkscape:connector-curvature="0" />
    <text
       xml:space="preserve"
       style="font-size:10px;font-style:normal;font-weight:normal;line-height:125%;letter-spacing:0px;word-spacing:0px;fill:#000000;fill-opacity:1;stroke:none;font-family:Sans"
       x="175"
       y="952.36218"
       id="text3018"
       sodipodi:linespacing="125%"><tspan
         sodipodi:role="line"
         id="tspan3020"
         x="175"
         y="952.36218">Min</tspan></text>
    <text
       xml:space="preserve"
       style="font-size:10px;font-style:normal;font-weight:normal;line-height:125%;letter-spacing:0px;word-spacing:0px;fill:#000000;fill-opacity:1;stroke:none;font-family:Sans"
       x="175"
       y="1042.3622"
       id="text3022"
       sodipodi:linespacing="125%"><tspan
         sodipodi:role="line"
         id="tspan3024"
         x="175"
         y="1042.3622">Max</tspan></text>
  </g>
</svg>
