<svg width="80" height="84" viewBox="0 0 80 84" version="1.1" xmlns="http://www.w3.org/2000/svg" xmlns:xlink="http://www.w3.org/1999/xlink">
<title>touch_gesture_tap</title>
<desc>Created using Figma</desc>
<g id="Canvas" transform="translate(-40 -2640)">
<g id="touch_gesture_tap">
<g id="path">
<use xlink:href="#path0_fill" transform="translate(62 2649)" fill="#FFFFFF"/>
<use xlink:href="#path1_fill" transform="translate(62 2649)" fill="#FFFFFF"/>
</g>
</g>
</g>
<defs>
<path id="path0_fill" d="M 19 9C 19 10.3196 18.6348 11.5542 18 12.6077L 18 15.7083C 19.8413 14.0603 21 11.6655 21 9C 21 4.02954 16.9705 0 12 0C 7.02954 0 3 4.02954 3 9C 3 11.6655 4.15869 14.0603 6 15.7083L 6 12.6077C 5.36523 11.5542 5 10.3196 5 9C 5 5.13403 8.13403 2 12 2C 15.866 2 19 5.13403 19 9Z"/>
<path id="path1_fill" fill-rule="evenodd" d="M 0 44.9805C 0.00366211 45.4099 0.092041 45.9199 0.23291 46.3257L 2.3313 52.2012C 2.52368 52.7212 2.88208 53.2878 3.27002 53.6841L 13.1331 63.5471C 14.0967 64.511 15.4849 64.9175 16.8162 64.6265L 29.8501 61.7751C 31.0029 61.5229 31.9854 60.7749 32.5349 59.7307L 36.5396 52.1218C 36.8162 51.5806 36.9927 50.8665 37 50.2588L 37 31C 37 28.7969 35.2009 27.0256 33 27.0256C 31.8083 27.0256 30.7344 27.5452 30 28.3711L 30 25.9744C 30 23.7712 28.2009 22 26 22C 24.7852 22 23.6929 22.5398 22.9578 23.3938C 22.6746 21.4683 21.0039 20 19 20C 18.2727 20 17.5891 20.1934 17 20.532L 17 9C 17 6.23853 14.7615 4 12 4C 9.23853 4 7 6.23853 7 9L 7 28.4133C 6.38696 28.1472 5.71045 28 5 28C 2.24658 28 0 30.2151 0 32.9658L 0 44.9805ZM 12 6C 10.3433 6 9 7.34326 9 9L 9 44L 7 44L 7 30.7551C 6.47046 30.2861 5.77051 30 5 30C 3.33496 30 2 31.3359 2 32.9658L 2 44.9805C 1.99951 45.0151 1.99951 45.0483 2.00024 45.0803C 2.00098 45.106 2.00195 45.1309 2.00342 45.155C 2.00928 45.2473 2.02173 45.3315 2.04272 45.4185C 2.05103 45.4521 2.06055 45.4861 2.07129 45.521C 2.08423 45.5632 2.09937 45.6069 2.11646 45.6531L 4.21484 51.5283C 4.32129 51.8447 4.44385 52.0383 4.68408 52.27L 14.5471 62.1331C 15.0291 62.6147 15.7231 62.8181 16.3887 62.6726L 29.4229 59.8215C 29.999 59.6953 30.4905 59.3213 30.7651 58.7991L 34.7698 51.1902C 34.9468 50.8699 35.0073 50.6248 35 50.2588L 35 31C 35 29.9177 34.1128 29.0256 33 29.0256C 31.8872 29.0256 31 29.9177 31 31L 31 34.5L 28 33.75L 28 25.9744C 28 24.8921 27.1128 24 26 24C 24.8872 24 24 24.8921 24 25.9744L 24 32.75L 21 32L 21 23.9744C 21 22.8921 20.1128 22 19 22C 17.8872 22 17 22.8921 17 23.9744L 17 32.8889L 15 33.3333L 15 9C 15 7.34326 13.6567 6 12 6Z"/>
</defs>
</svg>
