<svg xmlns:rdf="http://www.w3.org/1999/02/22-rdf-syntax-ns#" xmlns="http://www.w3.org/2000/svg" height="20" width="20" version="1.1" xmlns:cc="http://creativecommons.org/ns#" xmlns:dc="http://purl.org/dc/elements/1.1/" viewBox="0 0 20 20">
 <defs>
  <linearGradient id="d" x1="142.6" gradientUnits="userSpaceOnUse" y1="227.9" gradientTransform="matrix(.09933 0 0 .1065 -4.189 -15.13)" x2="142.6" y2="290.5">
   <stop stop-color="#fff" offset="0"/>
   <stop stop-color="#bbb" offset="1"/>
  </linearGradient>
  <linearGradient id="e" x1="168.6" gradientUnits="userSpaceOnUse" y1="276.6" gradientTransform="matrix(.09933 0 0 .1065 -4.189 -15.13)" x2="128.6" y2="203.1">
   <stop stop-color="#fff" offset="0"/>
   <stop stop-color="#fff" stop-opacity="0" offset="1"/>
  </linearGradient>
  <linearGradient id="f" x1="86.37" gradientUnits="userSpaceOnUse" y1="347.5" gradientTransform="matrix(.07629 0 0 .08182 .4309 -22.69)" x2="118.9" y2="387.5">
   <stop stop-color="#fff" offset="0"/>
   <stop stop-color="#fff" stop-opacity=".2281" offset="1"/>
  </linearGradient>
 </defs>
 <path style="color:#000000" d="m9.998 3.533c-4.2 0-7.822 2.646-9.501 6.467 1.679 3.821 5.301 6.467 9.501 6.467s7.824-2.646 9.504-6.467c-1.679-3.822-5.304-6.467-9.504-6.467z" fill="url(#d)"/>
 <path opacity=".8" style="color:#000000;block-progression:tb;text-transform:none;text-indent:0" d="m9.998 3c-4.395 0-8.192 2.771-9.951 6.774a0.4967 0.5326 0 0 0 0 0.4527c1.759 4.002 5.557 6.774 9.951 6.774s8.196-2.771 9.954-6.774a0.4967 0.5326 0 0 0 0 -0.4527c-1.758-4.002-5.559-6.773-9.954-6.773zm0 1.065c3.92 0 7.294 2.421 8.936 5.935-1.643 3.513-5.017 5.935-8.936 5.935s-7.29-2.422-8.933-5.935c1.642-3.514 5.014-5.935 8.933-5.935z" fill="#0064c8"/>
 <path opacity=".8" style="color:#000000;block-progression:tb;text-transform:none;text-indent:0" d="m10 3.457c-3.364 0-6.102 2.936-6.102 6.543s2.738 6.543 6.102 6.543 6.102-2.936 6.102-6.543-2.738-6.543-6.102-6.543z" fill="#0064c8"/>
 <path style="color:#000000" d="m10 4.594c-2.79 0-5.041 2.414-5.041 5.406s2.251 5.406 5.041 5.406 5.038-2.414 5.038-5.406-2.248-5.406-5.038-5.406z" fill="url(#e)"/>
 <path opacity=".8" style="color:#000000" d="m12.75 10a2.753 2.952 0 0 1 -5.506 0 2.753 2.952 0 1 1 5.506 0z" fill="#0064c8"/>
 <path style="color:#000000" d="m9.858 7.451a1.88 2.016 0 0 1 -3.76 0 1.88 2.016 0 1 1 3.76 0z" fill="url(#f)"/>
</svg>
