<svg xmlns:rdf="http://www.w3.org/1999/02/22-rdf-syntax-ns#" xmlns="http://www.w3.org/2000/svg" height="44" width="22" version="1.1" xmlns:cc="http://creativecommons.org/ns#" xmlns:xlink="http://www.w3.org/1999/xlink" viewBox="0 0 22 44.000001" xmlns:dc="http://purl.org/dc/elements/1.1/">
 <defs>
  <linearGradient id="f" y2="2616" xlink:href="#d" gradientUnits="userSpaceOnUse" y1="2616" gradientTransform="matrix(0 -1.167 1.167 0 -3041 1.141e4)" x2="9764" x1="9746"/>
  <linearGradient id="d">
   <stop stop-color="#003389" stop-opacity=".1166" offset="0"/>
   <stop stop-color="#002975" stop-opacity=".5707" offset="1"/>
  </linearGradient>
  <linearGradient id="e" x1="9746" xlink:href="#d" gradientUnits="userSpaceOnUse" y1="2616" gradientTransform="matrix(0 -1.167 1.167 0 -3041 1.139e4)" x2="9764" y2="2616"/>
 </defs>
 <path opacity=".2" style="color:#000000" d="m10.73 0.1632a10.5 10.5 0 0 1 10.5 10.5 10.5 10.5 0 0 1 -10.5 10.5 10.5 10.5 0 0 1 -10.5 -10.5 10.5 10.5 0 0 1 10.5 -10.5z" filter="url(#filter5372)" fill="url(#e)"/>
 <path style="color:#000000" d="m21.5 11a10.5 10.5 0 0 1 -10.5 10.5 10.5 10.5 0 0 1 -10.5 -10.5 10.5 10.5 0 0 1 10.5 -10.5 10.5 10.5 0 0 1 10.5 10.5z" stroke="#c4e7f5" fill="none"/>
 <path opacity=".2" style="color:#000000" d="m11 22.5a10.5 10.5 0 0 1 10.5 10.5 10.5 10.5 0 0 1 -10.5 10.5 10.5 10.5 0 0 1 -10.5 -10.5 10.5 10.5 0 0 1 10.5 -10.5z" filter="url(#filter5372)" fill="url(#f)"/>
 <path style="color:#000000" d="m21.5 33a10.5 10.5 0 0 1 -10.5 10.5 10.5 10.5 0 0 1 -10.5 -10.5 10.5 10.5 0 0 1 10.5 -10.5 10.5 10.5 0 0 1 10.5 10.5z" stroke="#c4e7f5" fill="none"/>
 <rect rx="4" ry="4" height="8" width="8" y="29" x="7" fill="#008ecc"/>
</svg>
