<svg xmlns:rdf="http://www.w3.org/1999/02/22-rdf-syntax-ns#" xmlns="http://www.w3.org/2000/svg" version="1.1" xml:space="preserve" viewBox="0 0 20 20" height="20" width="20" enable-background="new 0 0 100 100" y="0px" x="0px" xmlns:cc="http://creativecommons.org/ns#" xmlns:dc="http://purl.org/dc/elements/1.1/"><g fill="#0064c8" transform="scale(.2)"><path opacity=".8" d="m69.27 42.09c-5.941-7.138-11.88-14.28-17.82-21.41-0.438-0.524-0.951-0.715-1.447-0.681-0.496-0.034-1.011 0.156-1.447 0.681-5.941 7.138-11.88 14.28-17.82 21.41-1.1 1.319-0.461 3.494 1.446 3.494h7.479v32.39c0 1.116 0.931 2.047 2.047 2.047h16.6c1.116 0 2.047-0.931 2.047-2.047v-32.39h7.479c1.907 0 2.546-2.175 1.446-3.494z"/><path opacity=".8" d="m50 100c27.61 0 50-22.39 50-50s-22.39-50-50-50-50 22.39-50 50 22.39 50 50 50zm0-92c23.2 0 42 18.8 42 42s-18.8 42-42 42-42-18.8-42-42 18.8-42 42-42z"/></g></svg>
