<svg width="138" height="160" xmlns="http://www.w3.org/2000/svg" xmlns:xlink="http://www.w3.org/1999/xlink"><g fill="#FFF"><g transform="translate(40 40)"><use xlink:href="#path0_fill"/><use xlink:href="#path1_fill"/><use xlink:href="#path2_fill"/><use xlink:href="#path3_fill"/><use xlink:href="#path4_fill"/></g><g transform="translate(52 52)" fill-opacity=".5"><use xlink:href="#path5_fill"/><use xlink:href="#path6_fill"/></g></g><use xlink:href="#path7_fill" transform="rotate(90 -27.5 108.5)" fill="#FFF"/><use xlink:href="#path7_fill" transform="matrix(-1 0 0 1 24 68)" fill="#FFF"/><use xlink:href="#path7_fill" transform="translate(114 68)" fill="#FFF"/><use xlink:href="#path7_fill" transform="rotate(-90 40.5 -16.5)" fill="#FFF"/><defs><path id="path0_fill" d="M29 0l-5 4h10l-5-4z"/><path id="path1_fill" d="M0 39l4 5V34l-4 5z"/><path id="path2_fill" d="M35 76l-5 4-5-4h10z"/><path id="path3_fill" d="M58 39l-4-5v10l4-5z"/><path id="path4_fill" d="M23 16c0-1.537.578-2.938 1.528-4H24c-6.627 0-12 5.373-12 12v11c14.824 0 18 0 18-8v-.083A5.95 5.95 0 0 1 29 27a6 6 0 0 1-6-6v-5z"/><path id="path5_fill" d="M32 12c0-5.3-4.121-9.636-9.334-9.978A5.997 5.997 0 0 0 21.472 0H22c6.627 0 12 5.373 12 12v32c0 6.627-5.373 12-12 12H12C5.373 56 0 50.627 0 44V25l2-.001V44c0 5.523 4.477 10 10 10h10c5.523 0 10-4.477 10-10V23c-7.172-.01-11.285-.12-13.54-1.467.234-.322.442-.674.622-1.056.11-.235.209-.478.296-.728.21.138.461.264.77.38 1.019.385 2.545.626 4.89.749 1.894.1 4.182.118 6.962.121V12z"/><path id="path6_fill" fill-rule="evenodd" d="M13 4a4 4 0 1 1 8 0v5a4 4 0 1 1-8 0V4zm6 0v5a2 2 0 0 1-4 0V4a2 2 0 0 1 4 0z"/><path id="path7_fill" fill-rule="evenodd" d="M0 6a6 6 0 0 1 6-6h12a6 6 0 0 1 6 6v12a6 6 0 0 1-6 6H6a6 6 0 0 1-6-6V6zm6-4h12a4 4 0 0 1 4 4v12a4 4 0 0 1-4 4H6a4 4 0 0 1-4-4v-5h12.648a11.198 11.198 0 0 0-3.576 4.629l1.857.742c.884-2.289 2.4-3.556 3.825-4.382a9.504 9.504 0 0 1 2.246-.96v-2.058a9.504 9.504 0 0 1-2.246-.96c-1.424-.826-2.94-2.093-3.826-4.382l-1.857.742A11.199 11.199 0 0 0 14.649 11H2V6a4 4 0 0 1 4-4z"/></defs></svg>