<svg width="88" height="88" xmlns="http://www.w3.org/2000/svg" xmlns:xlink="http://www.w3.org/1999/xlink"><g transform="translate(32 64)" fill="#FFF"><use xlink:href="#path0_fill"/><use xlink:href="#path1_fill"/></g><g transform="translate(32)" fill="#FFF"><use xlink:href="#path2_fill"/><use xlink:href="#path3_fill"/></g><g transform="translate(0 32)" fill="#FFF"><use xlink:href="#path4_fill"/><use xlink:href="#path5_fill"/></g><g transform="translate(64 32)" fill="#FFF"><use xlink:href="#path6_fill"/><use xlink:href="#path7_fill"/></g><defs><path id="path0_fill" d="M10.913 13.061h4.78v-2.009h-4.78v-3.12h5.378V5.913H8.422V18h2.49v-4.939z"/><path id="path1_fill" fill-rule="evenodd" d="M0 6a6 6 0 0 1 6-6h12a6 6 0 0 1 6 6v12a6 6 0 0 1-6 6H6a6 6 0 0 1-6-6V6zm6-4h12a4 4 0 0 1 4 4v12a4 4 0 0 1-4 4H6a4 4 0 0 1-4-4V6a4 4 0 0 1 4-4z"/><path id="path2_fill" fill-rule="evenodd" d="M10.14 13.576h1.984L14.391 18h2.673v-.116l-2.615-4.94c.725-.326 1.264-.763 1.618-1.31.36-.554.54-1.243.54-2.068 0-1.162-.387-2.061-1.162-2.697-.775-.637-1.876-.955-3.304-.955h-4.49V18h2.49v-4.424zm2.01-2.017h-2.01V7.93h2.001c.67 0 1.165.163 1.486.49.326.326.49.775.49 1.345 0 .559-.172.998-.515 1.32-.343.315-.827.473-1.453.473z"/><path id="path3_fill" fill-rule="evenodd" d="M0 6a6 6 0 0 1 6-6h12a6 6 0 0 1 6 6v12a6 6 0 0 1-6 6H6a6 6 0 0 1-6-6V6zm6-4h12a4 4 0 0 1 4 4v12a4 4 0 0 1-4 4H6a4 4 0 0 1-4-4V6a4 4 0 0 1 4-4z"/><path id="path4_fill" fill-rule="evenodd" d="M9.817 15.51h4.366l.838 2.49h2.648L13.145 5.914h-2.307L6.338 18h2.649l.83-2.49zm3.694-2.017h-3.022l1.503-4.524 1.519 4.524z"/><path id="path5_fill" fill-rule="evenodd" d="M0 6a6 6 0 0 1 6-6h12a6 6 0 0 1 6 6v12a6 6 0 0 1-6 6H6a6 6 0 0 1-6-6V6zm6-4h12a4 4 0 0 1 4 4v12a4 4 0 0 1-4 4H6a4 4 0 0 1-4-4V6a4 4 0 0 1 4-4z"/><path id="path6_fill" fill-rule="evenodd" d="M7.55 5.914V18h3.744c1.057-.006 2.006-.249 2.848-.73a4.937 4.937 0 0 0 1.95-2.034c.465-.875.698-1.873.698-2.997v-.556c0-1.123-.236-2.125-.706-3.005a4.965 4.965 0 0 0-1.967-2.042c-.836-.481-1.785-.722-2.848-.722H7.552zM10.042 16V7.931h1.229c.979 0 1.723.318 2.232.955.51.63.764 1.56.764 2.789v.639c-.011 1.184-.274 2.095-.789 2.73-.514.637-1.258.955-2.232.955H10.04z"/><path id="path7_fill" fill-rule="evenodd" d="M0 6a6 6 0 0 1 6-6h12a6 6 0 0 1 6 6v12a6 6 0 0 1-6 6H6a6 6 0 0 1-6-6V6zm6-4h12a4 4 0 0 1 4 4v12a4 4 0 0 1-4 4H6a4 4 0 0 1-4-4V6a4 4 0 0 1 4-4z"/></defs></svg>