<svg width="136" height="70" xmlns="http://www.w3.org/2000/svg" xmlns:xlink="http://www.w3.org/1999/xlink"><g fill="#FFF"><use xlink:href="#path0_fill"/><use xlink:href="#path1_fill"/><use xlink:href="#path2_fill"/><use xlink:href="#path3_fill"/><use xlink:href="#path4_fill"/><use xlink:href="#path5_fill"/><use xlink:href="#path6_fill"/><use xlink:href="#path7_fill"/></g><use xlink:href="#path8_fill" transform="translate(14 14)" fill="#FFF" fill-opacity=".5"/><g transform="translate(72 30)" fill="#FFF"><use xlink:href="#path9_fill"/><use xlink:href="#path10_fill"/></g><g transform="translate(112 30)" fill="#FFF"><use xlink:href="#path11_fill"/><use xlink:href="#path12_fill"/></g><defs><path id="path0_fill" d="M0 4l5-4 5 4H0z"/><path id="path1_fill" d="M6 9a1 1 0 1 1-2 0 1 1 0 0 1 2 0z"/><path id="path2_fill" d="M5 16a1 1 0 1 0 0-2 1 1 0 0 0 0 2z"/><path id="path3_fill" d="M5 42l5-4H0l5 4z"/><path id="path4_fill" d="M6 21a1 1 0 1 1-2 0 1 1 0 0 1 2 0z"/><path id="path5_fill" d="M6 27a1 1 0 1 1-2 0 1 1 0 0 1 2 0z"/><path id="path6_fill" d="M6 33a1 1 0 1 1-2 0 1 1 0 0 1 2 0z"/><path id="path7_fill" d="M31 14a4 4 0 0 0-4 4v5a4 4 0 1 0 8 0v-5a4 4 0 0 0-4-4z"/><path id="path8_fill" fill-rule="evenodd" d="M16 14.917V15c0 1.926-.202 3.06-.538 3.773-.275.586-.696 1.01-1.61 1.356-1.019.385-2.545.626-4.89.749-1.894.1-4.182.118-6.962.121V12c0-5.3 4.121-9.636 9.334-9.978A5.997 5.997 0 0 1 12.528 0H12C5.373 0 0 5.373 0 12v32c0 6.627 5.373 12 12 12h10c6.627 0 12-5.373 12-12V12c0-6.627-5.373-12-12-12h-.528c.522.583.931 1.268 1.194 2.022C27.88 2.365 32 6.7 32 12v9c-2.78-.004-5.068-.022-6.961-.122-2.346-.123-3.872-.364-4.891-.749-.914-.345-1.335-.77-1.61-1.356C18.202 18.06 18 16.926 18 15v-.083a6.057 6.057 0 0 1-2 0zM2 22.999c9.139-.011 13.31-.188 15-2.875 1.69 2.687 5.861 2.864 15 2.875V44c0 5.523-4.477 10-10 10H12C6.477 54 2 49.523 2 44V23z"/><path id="path9_fill" fill-rule="evenodd" d="M10.14 13.576h1.984L14.391 18h2.673v-.116l-2.615-4.94c.725-.326 1.264-.763 1.618-1.31.36-.554.54-1.243.54-2.068 0-1.162-.387-2.061-1.162-2.697-.775-.637-1.876-.955-3.304-.955h-4.49V18h2.49v-4.424zm2.01-2.017h-2.01V7.93h2.001c.67 0 1.165.163 1.486.49.326.326.49.775.49 1.345 0 .559-.172.998-.515 1.32-.343.315-.827.473-1.453.473z"/><path id="path10_fill" fill-rule="evenodd" d="M0 6a6 6 0 0 1 6-6h12a6 6 0 0 1 6 6v12a6 6 0 0 1-6 6H6a6 6 0 0 1-6-6V6zm6-4h12a4 4 0 0 1 4 4v12a4 4 0 0 1-4 4H6a4 4 0 0 1-4-4V6a4 4 0 0 1 4-4z"/><path id="path11_fill" d="M10.913 13.061h4.78v-2.009h-4.78v-3.12h5.378V5.913H8.422V18h2.49v-4.939z"/><path id="path12_fill" fill-rule="evenodd" d="M0 6a6 6 0 0 1 6-6h12a6 6 0 0 1 6 6v12a6 6 0 0 1-6 6H6a6 6 0 0 1-6-6V6zm6-4h12a4 4 0 0 1 4 4v12a4 4 0 0 1-4 4H6a4 4 0 0 1-4-4V6a4 4 0 0 1 4-4z"/></defs></svg>