<svg width="138" height="160" xmlns="http://www.w3.org/2000/svg" xmlns:xlink="http://www.w3.org/1999/xlink"><g transform="translate(40 40)" fill="#FFF"><use xlink:href="#path0_fill"/><use xlink:href="#path1_fill"/><use xlink:href="#path2_fill"/><use xlink:href="#path3_fill"/><use xlink:href="#path4_fill"/></g><g transform="translate(52 52)" fill="#FFF" fill-opacity=".5"><use xlink:href="#path5_fill"/><use xlink:href="#path6_fill"/></g><g transform="translate(37 136)" fill="#FFF"><use xlink:href="#path7_fill"/><use xlink:href="#path8_fill"/></g><use xlink:href="#path9_fill" transform="rotate(90 -17.5 118.5)" fill="#FFF"/><g transform="translate(0 48)" fill="#FFF"><use xlink:href="#path10_fill"/><use xlink:href="#path11_fill"/></g><use xlink:href="#path9_fill" transform="matrix(-1 0 0 1 24 88)" fill="#FFF"/><g transform="translate(114 48)" fill="#FFF"><use xlink:href="#path12_fill"/><use xlink:href="#path13_fill"/></g><use xlink:href="#path9_fill" transform="translate(114 88)" fill="#FFF"/><use xlink:href="#path9_fill" transform="rotate(-90 50.5 -26.5)" fill="#FFF"/><g transform="translate(37)" fill="#FFF"><use xlink:href="#path14_fill"/><use xlink:href="#path15_fill"/></g><defs><path id="path0_fill" d="M29 0l-5 4h10l-5-4z"/><path id="path1_fill" d="M0 39l4 5V34l-4 5z"/><path id="path2_fill" d="M35 76l-5 4-5-4h10z"/><path id="path3_fill" d="M58 39l-4-5v10l4-5z"/><path id="path4_fill" d="M23 16c0-1.537.578-2.938 1.528-4H24c-6.627 0-12 5.373-12 12v11c14.824 0 18 0 18-8v-.083A5.95 5.95 0 0 1 29 27a6 6 0 0 1-6-6v-5z"/><path id="path5_fill" d="M32 12c0-5.3-4.121-9.636-9.334-9.978A5.997 5.997 0 0 0 21.472 0H22c6.627 0 12 5.373 12 12v32c0 6.627-5.373 12-12 12H12C5.373 56 0 50.627 0 44V25l2-.001V44c0 5.523 4.477 10 10 10h10c5.523 0 10-4.477 10-10V23c-7.172-.01-11.285-.12-13.54-1.467.234-.322.442-.674.622-1.056.11-.235.209-.478.296-.728.21.138.461.264.77.38 1.019.385 2.545.626 4.89.749 1.894.1 4.182.118 6.962.121V12z"/><path id="path6_fill" fill-rule="evenodd" d="M13 4a4 4 0 1 1 8 0v5a4 4 0 1 1-8 0V4zm6 0v5a2 2 0 0 1-4 0V4a2 2 0 0 1 4 0z"/><path id="path7_fill" d="M13.619 13.75c.332.249.498.609.498 1.08 0 .43-.166.768-.498 1.012-.332.238-.794.357-1.387.357-1.593 0-2.39-.667-2.39-2H7.343c0 .78.2 1.466.598 2.058.404.592.988 1.06 1.751 1.403.764.337 1.61.506 2.54.506 1.34 0 2.405-.296 3.196-.888.792-.598 1.187-1.42 1.187-2.465 0-.941-.323-1.727-.971-2.358-.647-.63-1.68-1.16-3.096-1.585-.77-.233-1.353-.482-1.752-.747-.393-.266-.589-.595-.589-.988 0-.42.169-.758.506-1.013.338-.26.811-.39 1.42-.39.63 0 1.12.155 1.47.465.348.304.522.733.522 1.286h2.49c0-.725-.188-1.372-.564-1.942-.37-.57-.894-1.01-1.57-1.32-.674-.315-1.443-.473-2.307-.473-.857 0-1.632.144-2.324.432-.686.287-1.215.689-1.585 1.203a2.915 2.915 0 0 0-.548 1.743c0 1.257.686 2.256 2.058 2.997.504.271 1.187.548 2.05.83.864.277 1.462.542 1.794.797z"/><path id="path8_fill" fill-rule="evenodd" d="M0 6a6 6 0 0 1 6-6h12a6 6 0 0 1 6 6v12a6 6 0 0 1-6 6H6a6 6 0 0 1-6-6V6zm6-4h12a4 4 0 0 1 4 4v12a4 4 0 0 1-4 4H6a4 4 0 0 1-4-4V6a4 4 0 0 1 4-4z"/><path id="path9_fill" fill-rule="evenodd" d="M0 6a6 6 0 0 1 6-6h12a6 6 0 0 1 6 6v12a6 6 0 0 1-6 6H6a6 6 0 0 1-6-6V6zm6-4h12a4 4 0 0 1 4 4v12a4 4 0 0 1-4 4H6a4 4 0 0 1-4-4v-5h12.648a11.198 11.198 0 0 0-3.576 4.629l1.857.742c.884-2.289 2.4-3.556 3.825-4.382a9.504 9.504 0 0 1 2.246-.96v-2.058a9.504 9.504 0 0 1-2.246-.96c-1.424-.826-2.94-2.093-3.826-4.382l-1.857.742A11.199 11.199 0 0 0 14.649 11H2V6a4 4 0 0 1 4-4z"/><path id="path10_fill" fill-rule="evenodd" d="M9.817 15.51h4.366l.838 2.49h2.648L13.145 5.914h-2.307L6.338 18h2.649l.83-2.49zm3.694-2.017h-3.022l1.503-4.524 1.519 4.524z"/><path id="path11_fill" fill-rule="evenodd" d="M0 6a6 6 0 0 1 6-6h12a6 6 0 0 1 6 6v12a6 6 0 0 1-6 6H6a6 6 0 0 1-6-6V6zm6-4h12a4 4 0 0 1 4 4v12a4 4 0 0 1-4 4H6a4 4 0 0 1-4-4V6a4 4 0 0 1 4-4z"/><path id="path12_fill" fill-rule="evenodd" d="M7.55 5.914V18h3.744c1.057-.006 2.006-.249 2.848-.73a4.937 4.937 0 0 0 1.95-2.034c.465-.875.698-1.873.698-2.997v-.556c0-1.123-.236-2.125-.706-3.005a4.965 4.965 0 0 0-1.967-2.042c-.836-.481-1.785-.722-2.848-.722H7.552zM10.042 16V7.931h1.229c.979 0 1.723.318 2.232.955.51.63.764 1.56.764 2.789v.639c-.011 1.184-.274 2.095-.789 2.73-.514.637-1.258.955-2.232.955H10.04z"/><path id="path13_fill" fill-rule="evenodd" d="M0 6a6 6 0 0 1 6-6h12a6 6 0 0 1 6 6v12a6 6 0 0 1-6 6H6a6 6 0 0 1-6-6V6zm6-4h12a4 4 0 0 1 4 4v12a4 4 0 0 1-4 4H6a4 4 0 0 1-4-4V6a4 4 0 0 1 4-4z"/><path id="path14_fill" d="M16.682 5.914l-1.627 8.6-1.984-8.6h-2.109L8.97 14.497 7.335 5.914H4.853L7.534 18h2.507l1.967-8.085L13.976 18h2.506l2.682-12.086h-2.482z"/><path id="path15_fill" fill-rule="evenodd" d="M0 6a6 6 0 0 1 6-6h12a6 6 0 0 1 6 6v12a6 6 0 0 1-6 6H6a6 6 0 0 1-6-6V6zm6-4h12a4 4 0 0 1 4 4v12a4 4 0 0 1-4 4H6a4 4 0 0 1-4-4V6a4 4 0 0 1 4-4z"/></defs></svg>