<svg width="34" height="56" xmlns="http://www.w3.org/2000/svg" xmlns:xlink="http://www.w3.org/1999/xlink"><g transform="translate(-3301 -2156)"><mask id="a"><use xlink:href="#path0_fill" fill="#fff" transform="translate(3301 2156)"/></mask><g mask="url(#a)"><use xlink:href="#path1_stroke_2x" transform="translate(3301 2156)" fill="#FFF"/></g></g><g fill="#FFF" fill-opacity=".5"><use xlink:href="#path2_fill"/><use xlink:href="#path3_fill"/></g><defs><path id="path0_fill" d="M12.528 0A5.977 5.977 0 0 0 11 4v5a6 6 0 0 0 7 5.917V15c0 8-3.176 8-18 8V12C0 5.373 5.373 0 12 0h.528z"/><path id="path1_stroke_2x" d="M12.528 0l1.49 1.334L17.002-2h-4.474v2zM18 14.917h2v-2.363l-2.33.39.33 1.973zM0 23h-2v2h2v-2zM13 4c0-1.026.383-1.957 1.018-2.666l-2.98-2.668A7.977 7.977 0 0 0 9 4h4zm0 5V4H9v5h4zm4 4a4 4 0 0 1-4-4H9a8 8 0 0 0 8 8v-4zm.67-.056A4.052 4.052 0 0 1 17 13v4a8.05 8.05 0 0 0 1.33-.11l-.66-3.946zM20 15v-.083h-4V15h4zM0 25c3.686 0 6.724 0 9.171-.128 2.42-.127 4.466-.386 6.095-1.001 1.733-.655 3.033-1.73 3.816-3.394C19.805 18.94 20 17.074 20 15h-4c0 1.926-.202 3.06-.538 3.773-.275.586-.696 1.01-1.61 1.356-1.019.385-2.545.626-4.89.749C6.642 20.999 3.725 21 0 21v4zm-2-13v11h4V12h-4zM12-2C4.268-2-2 4.268-2 12h4C2 6.477 6.477 2 12 2v-4zm.528 0H12v4h.528v-4z"/><path id="path2_fill" d="M32 12c0-5.3-4.121-9.636-9.334-9.978A5.997 5.997 0 0 0 21.472 0H22c6.627 0 12 5.373 12 12v32c0 6.627-5.373 12-12 12H12C5.373 56 0 50.627 0 44V25l2-.001V44c0 5.523 4.477 10 10 10h10c5.523 0 10-4.477 10-10V23c-7.172-.01-11.285-.12-13.54-1.467a6.392 6.392 0 0 0 .622-1.056 7.25 7.25 0 0 0 .296-.728c.21.138.461.264.77.38 1.019.385 2.545.626 4.89.749 1.894.1 4.182.118 6.962.121V12z"/><path id="path3_fill" fill-rule="evenodd" d="M13 4a4 4 0 1 1 8 0v5a4 4 0 1 1-8 0V4zm6 0v5a2 2 0 0 1-4 0V4a2 2 0 0 1 4 0z"/></defs></svg>