<svg width="80" height="84" xmlns="http://www.w3.org/2000/svg" xmlns:xlink="http://www.w3.org/1999/xlink"><use xlink:href="#path0_stroke" transform="translate(3 12)" fill="#FFF"/><use xlink:href="#path1_fill" transform="translate(0 20)" fill="#FFF"/><defs><path id="path0_stroke" d="M.63 60.777l74-60-1.26-1.554-74 60 1.26 1.554z"/><path id="path1_fill" fill-rule="evenodd" d="M60.782 0H6a6 6 0 0 0-6 6v32a6 6 0 0 0 6 6h.515l2.467-2H6a4 4 0 0 1-4-4V6a4 4 0 0 1 4-4h52.315l2.467-2zM60 10.933L66.085 6H68v8h-8v-3.067zM42 25.528l8-6.486V26h-8v-.472zM26.618 38l9.867-8H56v8H26.618zm-4.933 4H74a4 4 0 0 0 4-4V6a4 4 0 0 0-4-4h-2.982l2.467-2H74a6 6 0 0 1 6 6v32a6 6 0 0 1-6 6H19.218l2.467-2zM53.382 6H48v4.364L53.382 6zM44 13.607V6h-8v8h7.515l.485-.393zm-6 4.865V18h-8v6.959l8-6.487zM20 33.067V30h-8v8h1.915L20 33.067zM20 6h-8v8h8V6zm-8 12h14v8H12v-8zM32 6h-8v8h8V6zm36 24h-8v8h8v-8zM54 18h14v8H54v-8z"/></defs></svg>