<svg width="80" height="84" xmlns="http://www.w3.org/2000/svg" xmlns:xlink="http://www.w3.org/1999/xlink"><g transform="translate(7.37 14)" fill="#FFF"><use xlink:href="#path0_fill"/><use xlink:href="#path1_fill"/><use xlink:href="#path2_fill"/><use xlink:href="#path3_fill"/><use xlink:href="#path4_fill"/></g><defs><path id="path0_fill" d="M37.63 0c5.694 0 10.461 3.965 11.692 9.284l-1.772 1.44c-.6-4.704-4.466-8.388-9.253-8.702A5.997 5.997 0 0 0 37.103 0h.528z"/><path id="path1_fill" d="M47.63 21h-.04l-2.45 1.99c.474.003.962.006 1.467.007l1.024.002V44c0 5.523-4.477 10-10 10h-10c-5.091 0-9.293-3.804-9.92-8.724l-1.772 1.44C17.17 52.036 21.937 56 27.631 56h10c6.627 0 12-5.373 12-12V19.342l-2 1.625v.032z"/><path id="path2_fill" d="M35.779 20.13l.135.049-1.733 1.407a4.283 4.283 0 0 1-1.55-1.462c-1.69 2.687-5.862 2.864-15 2.875v12.034l-2 1.625V12c0-6.627 5.372-12 12-12h.527a6.043 6.043 0 0 0-1.194 2.022C21.752 2.365 17.631 6.7 17.631 12v9c2.78-.004 5.067-.022 6.961-.122 2.345-.123 3.872-.364 4.89-.749.915-.345 1.335-.77 1.611-1.356.336-.713.538-1.847.538-3.773v-.083a6.057 6.057 0 0 0 2 0V15c0 1.926.202 3.06.537 3.773.276.586.697 1.01 1.61 1.356z"/><path id="path3_fill" fill-rule="evenodd" d="M28.63 4a4 4 0 1 1 8 0v5a4 4 0 1 1-8 0V4zm6 0v5a2 2 0 0 1-4 0V4a2 2 0 0 1 4 0z"/><path id="path4_fill" d="M1.261 54.776l64-52L64 1.224l-64 52 1.261 1.552z"/></defs></svg>