<svg width="272" height="84" viewBox="0 0 272 84" version="1.1" xmlns="http://www.w3.org/2000/svg" xmlns:xlink="http://www.w3.org/1999/xlink">
<title>Group</title>
<desc>Created using Figma</desc>
<g id="Canvas" transform="translate(-3016 -3024)">
<g id="Group">
<g id="keyboard_no_action">
<g id="Group">
<g id="line">
<use xlink:href="#path0_stroke" transform="translate(3115 3036)" fill="#FFFFFF"/>
</g>
<g id="Subtract">
<use xlink:href="#path1_fill" transform="translate(3112 3044)" fill="#FFFFFF"/>
</g>
</g>
</g>
<g id="mouse_no_action">
<g id="shape">
<use xlink:href="#path2_fill" transform="translate(3215.37 3038)" fill="#FFFFFF"/>
<use xlink:href="#path3_fill" transform="translate(3215.37 3038)" fill="#FFFFFF"/>
<use xlink:href="#path4_fill" transform="translate(3215.37 3038)" fill="#FFFFFF"/>
<use xlink:href="#path5_fill" transform="translate(3215.37 3038)" fill="#FFFFFF"/>
<use xlink:href="#path6_fill" transform="translate(3215.37 3038)" fill="#FFFFFF"/>
</g>
</g>
<g id="touch_gesture_no_acton">
<g id="shape">
<use xlink:href="#path7_fill" transform="translate(3023.37 3032)" fill="#FFFFFF"/>
<use xlink:href="#path8_fill" transform="translate(3023.37 3032)" fill="#FFFFFF"/>
<use xlink:href="#path9_fill" transform="translate(3023.37 3032)" fill="#FFFFFF"/>
</g>
</g>
</g>
</g>
<defs>
<path id="path0_stroke" d="M 0.629802 60.7768L 74.6298 0.776756L 73.3702 -0.776756L -0.629802 59.2232L 0.629802 60.7768Z"/>
<path id="path1_fill" fill-rule="evenodd" d="M 60.7822 0L 6 0C 2.68628 0 0 2.68628 0 6L 0 38C 0 41.3137 2.68628 44 6 44L 6.51538 44L 8.98218 42L 6 42C 3.79077 42 2 40.2092 2 38L 2 6C 2 3.79077 3.79077 2 6 2L 58.3154 2L 60.7822 0ZM 60 10.9333L 66.0845 6L 68 6L 68 14L 60 14L 60 10.9333ZM 42 25.5281L 50 19.0415L 50 26L 42 26L 42 25.5281ZM 26.6179 38L 36.4846 30L 56 30L 56 38L 26.6179 38ZM 21.6846 42L 74 42C 76.2092 42 78 40.2092 78 38L 78 6C 78 3.79077 76.2092 2 74 2L 71.0178 2L 73.4846 0L 74 0C 77.3137 0 80 2.68628 80 6L 80 38C 80 41.3137 77.3137 44 74 44L 19.2178 44L 21.6846 42ZM 53.3821 6L 48 6L 48 10.364L 53.3821 6ZM 44 13.6072L 44 6L 36 6L 36 14L 43.5154 14L 44 13.6072ZM 38 18.4719L 38 18L 30 18L 30 24.9585L 38 18.4719ZM 20 33.0667L 20 30L 12 30L 12 38L 13.9155 38L 20 33.0667ZM 20 6L 12 6L 12 14L 20 14L 20 6ZM 12 18L 26 18L 26 26L 12 26L 12 18ZM 32 6L 24 6L 24 14L 32 14L 32 6ZM 68 30L 60 30L 60 38L 68 38L 68 30ZM 54 18L 68 18L 68 26L 54 26L 54 18Z"/>
<path id="path2_fill" d="M 37.6306 0C 43.324 0 48.0913 3.96484 49.322 9.28418L 47.55 10.7241C 46.9509 6.02002 43.084 2.33643 38.2969 2.02173C 38.0337 1.26782 37.6243 0.582764 37.1028 0L 37.6306 0Z"/>
<path id="path3_fill" d="M 47.6306 20.9993L 47.5903 20.9993L 45.1409 22.9895C 45.6138 22.9932 46.1025 22.9956 46.6072 22.9973L 47.6306 22.9993L 47.6306 44C 47.6306 49.5229 43.1536 54 37.6306 54L 27.6306 54C 22.54 54 18.3379 50.1963 17.7112 45.2759L 15.9392 46.7158C 17.1699 52.0352 21.9373 56 27.6306 56L 37.6306 56C 44.2581 56 49.6306 50.6274 49.6306 44L 49.6306 19.3416L 47.6306 20.9666L 47.6306 20.9993Z"/>
<path id="path4_fill" d="M 35.7786 20.1292C 35.8228 20.1458 35.8677 20.1624 35.9138 20.1785L 34.1812 21.5862C 33.519 21.2085 33.0117 20.7302 32.6306 20.124C 30.9412 22.8113 26.7693 22.9878 17.6306 22.9993L 17.6306 35.0334L 15.6306 36.6584L 15.6306 12C 15.6306 5.37256 21.0032 0 27.6306 0L 28.1584 0C 27.9209 0.265625 27.7065 0.55249 27.5186 0.857422C 27.4255 1.0083 27.3391 1.16357 27.2595 1.32275C 27.147 1.5481 27.0483 1.78125 26.9644 2.02173C 21.752 2.3645 17.6306 6.70093 17.6306 12L 17.6306 20.9993C 20.4106 20.9958 22.6982 20.9778 24.592 20.8777C 26.9373 20.7546 28.4639 20.5139 29.4827 20.1292C 30.3967 19.7837 30.8174 19.3591 31.093 18.7734C 31.4287 18.0603 31.6306 16.926 31.6306 15L 31.6306 14.917C 31.9558 14.9714 32.2898 15 32.6306 15C 32.9714 15 33.3054 14.9714 33.6306 14.917L 33.6306 15C 33.6306 16.926 33.8325 18.0603 34.1682 18.7734C 34.4438 19.3591 34.8645 19.7837 35.7786 20.1292Z"/>
<path id="path5_fill" fill-rule="evenodd" d="M 28.6306 4C 28.6306 1.79077 30.4214 0 32.6306 0C 34.8398 0 36.6306 1.79077 36.6306 4L 36.6306 9C 36.6306 11.2092 34.8398 13 32.6306 13C 30.4214 13 28.6306 11.2092 28.6306 9L 28.6306 4ZM 34.6306 4L 34.6306 9C 34.6306 10.1045 33.7351 11 32.6306 11C 31.5261 11 30.6306 10.1045 30.6306 9L 30.6306 4C 30.6306 2.89551 31.5261 2 32.6306 2C 33.7351 2 34.6306 2.89551 34.6306 4Z"/>
<path id="path6_fill" d="M 1.26123 54.7761L 65.2612 2.77612L 64 1.22388L 0 53.2239L 1.26123 54.7761Z"/>
<path id="path7_fill" d="M 25.6306 5C 27.2874 5 28.6306 6.34326 28.6306 8L 28.6306 32.3333L 30.6306 31.8889L 30.6306 22.9744C 30.6306 21.8921 31.5178 21 32.6306 21C 33.7434 21 34.6306 21.8921 34.6306 22.9744L 34.6306 31L 36.7209 31.5227L 37.6306 30.7834L 37.6306 24.9744C 37.6306 23.8921 38.5178 23 39.6306 23C 40.7434 23 41.6306 23.8921 41.6306 24.9744L 41.6306 27.5334L 43.6306 25.9084L 43.6306 24.9744C 43.6306 22.7712 41.8315 21 39.6306 21C 38.4158 21 37.3235 21.5398 36.5884 22.3938C 36.3052 20.4683 34.6345 19 32.6306 19C 31.9033 19 31.2197 19.1934 30.6306 19.532L 30.6306 9L 31.6306 9L 31.6306 13.2917C 32.8752 11.8816 33.6306 10.0291 33.6306 8C 33.6306 3.58179 30.0488 0 25.6306 0C 21.2124 0 17.6306 3.58179 17.6306 8C 17.6306 10.0291 18.386 11.8816 19.6306 13.2917L 19.6306 9L 20.6306 9L 20.6306 27.4133C 20.0176 27.1472 19.3411 27 18.6306 27C 15.8772 27 13.6306 29.2151 13.6306 31.9658L 13.6306 43.9805C 13.6343 44.4099 13.7227 44.9199 13.8635 45.3257L 15.1836 49.0217L 16.8296 47.6843L 15.7471 44.6531C 15.6567 44.4111 15.627 44.2385 15.6306 43.9805L 15.6306 31.9658C 15.6306 30.3359 16.9656 29 18.6306 29C 19.4011 29 20.1011 29.2861 20.6306 29.7551L 20.6306 43L 22.595 43L 22.6306 42.9709L 22.6306 8C 22.6306 6.34326 23.9739 5 25.6306 5Z"/>
<path id="path8_fill" d="M 28.1777 61.1331L 21.3579 54.3132L 19.7974 55.5808L 26.7637 62.5471C 27.7273 63.511 29.1155 63.9175 30.4468 63.6265L 43.4807 60.7751C 44.6335 60.5229 45.616 59.7749 46.1655 58.7307L 50.1702 51.1218C 50.4468 50.5806 50.6233 49.8665 50.6306 49.2588L 50.6306 30.5291L 48.6306 32.1541L 48.6306 49.2588C 48.6335 49.4019 48.626 49.5266 48.6052 49.6445C 48.5728 49.8281 48.5083 49.9951 48.4004 50.1902L 44.3958 57.7991C 44.1211 58.3213 43.6296 58.6953 43.0535 58.8215L 30.0193 61.6726C 29.3538 61.8181 28.6597 61.6147 28.1777 61.1331Z"/>
<path id="path9_fill" d="M 1.26123 66.7761L 65.2612 14.7761L 64 13.2239L 0 65.2239L 1.26123 66.7761Z"/>
</defs>
</svg>
