<svg width="136" height="80" xmlns="http://www.w3.org/2000/svg" xmlns:xlink="http://www.w3.org/1999/xlink"><g fill="#FFF"><use xlink:href="#path0_fill"/><use xlink:href="#path1_fill"/><use xlink:href="#path2_fill"/><use xlink:href="#path3_fill"/><use xlink:href="#path4_fill"/><use xlink:href="#path5_fill"/><use xlink:href="#path6_fill"/><use xlink:href="#path7_fill"/></g><use xlink:href="#path8_fill" transform="translate(14 14)" fill="#FFF" fill-opacity=".5"/><g transform="translate(72 30)" fill="#FFF"><use xlink:href="#path9_fill"/><use xlink:href="#path10_fill"/></g><g><g transform="translate(112 30)" fill="#FFF"><use xlink:href="#path11_fill"/><use xlink:href="#path12_fill"/></g></g><defs><path id="path0_fill" d="M0 4l5-4 5 4H0z"/><path id="path1_fill" d="M6 9a1 1 0 1 1-2 0 1 1 0 0 1 2 0z"/><path id="path2_fill" d="M5 16a1 1 0 1 0 0-2 1 1 0 0 0 0 2z"/><path id="path3_fill" d="M5 42l5-4H0l5 4z"/><path id="path4_fill" d="M6 21a1 1 0 1 1-2 0 1 1 0 0 1 2 0z"/><path id="path5_fill" d="M6 27a1 1 0 1 1-2 0 1 1 0 0 1 2 0z"/><path id="path6_fill" d="M6 33a1 1 0 1 1-2 0 1 1 0 0 1 2 0z"/><path id="path7_fill" d="M31 14a4 4 0 0 0-4 4v5a4 4 0 1 0 8 0v-5a4 4 0 0 0-4-4z"/><path id="path8_fill" fill-rule="evenodd" d="M16 14.917V15c0 1.926-.202 3.06-.538 3.773-.275.586-.696 1.01-1.61 1.356-1.019.385-2.545.626-4.89.749-1.894.1-4.182.118-6.962.121V12c0-5.3 4.121-9.636 9.334-9.978A5.997 5.997 0 0 1 12.528 0H12C5.373 0 0 5.373 0 12v32c0 6.627 5.373 12 12 12h10c6.627 0 12-5.373 12-12V12c0-6.627-5.373-12-12-12h-.528c.522.583.931 1.268 1.194 2.022C27.88 2.365 32 6.7 32 12v9c-2.78-.004-5.068-.022-6.961-.122-2.346-.123-3.872-.364-4.891-.749-.914-.345-1.335-.77-1.61-1.356C18.202 18.06 18 16.926 18 15v-.083a6.057 6.057 0 0 1-2 0zM2 22.999c9.139-.011 13.31-.188 15-2.875 1.69 2.687 5.861 2.864 15 2.875V44c0 5.523-4.477 10-10 10H12C6.477 54 2 49.523 2 44V23z"/><path id="path9_fill" d="M13.619 13.75c.332.249.498.609.498 1.08 0 .43-.166.768-.498 1.012-.332.238-.794.357-1.387.357-1.593 0-2.39-.667-2.39-2H7.343c0 .78.2 1.466.598 2.058.404.592.988 1.06 1.751 1.403.764.337 1.61.506 2.54.506 1.34 0 2.405-.296 3.196-.888.792-.598 1.187-1.42 1.187-2.465 0-.941-.323-1.727-.971-2.358-.647-.63-1.68-1.16-3.096-1.585-.77-.233-1.353-.482-1.752-.747-.393-.266-.589-.595-.589-.988 0-.42.169-.758.506-1.013.338-.26.811-.39 1.42-.39.63 0 1.12.155 1.47.465.348.304.522.733.522 1.286h2.49c0-.725-.188-1.372-.564-1.942-.37-.57-.894-1.01-1.57-1.32-.674-.315-1.443-.473-2.307-.473-.857 0-1.632.144-2.324.432-.686.287-1.215.689-1.585 1.203a2.915 2.915 0 0 0-.548 1.743c0 1.257.686 2.256 2.058 2.997.504.271 1.187.548 2.05.83.864.277 1.462.542 1.794.797z"/><path id="path10_fill" fill-rule="evenodd" d="M0 6a6 6 0 0 1 6-6h12a6 6 0 0 1 6 6v12a6 6 0 0 1-6 6H6a6 6 0 0 1-6-6V6zm6-4h12a4 4 0 0 1 4 4v12a4 4 0 0 1-4 4H6a4 4 0 0 1-4-4V6a4 4 0 0 1 4-4z"/><path id="path11_fill" d="M16.682 5.914l-1.627 8.6-1.984-8.6h-2.109L8.97 14.497 7.335 5.914H4.853L7.534 18h2.507l1.967-8.085L13.976 18h2.506l2.682-12.086h-2.482z"/><path id="path12_fill" fill-rule="evenodd" d="M0 6a6 6 0 0 1 6-6h12a6 6 0 0 1 6 6v12a6 6 0 0 1-6 6H6a6 6 0 0 1-6-6V6zm6-4h12a4 4 0 0 1 4 4v12a4 4 0 0 1-4 4H6a4 4 0 0 1-4-4V6a4 4 0 0 1 4-4z"/></defs></svg>