<svg width="66" height="67" xmlns="http://www.w3.org/2000/svg" xmlns:xlink="http://www.w3.org/1999/xlink"><g transform="translate(.37)" fill="#FFF"><use xlink:href="#path0_fill"/><use xlink:href="#path1_fill"/><use xlink:href="#path2_fill"/></g><defs><path id="path0_fill" d="M25.63 5a3 3 0 0 1 3 3v24.333l2-.444v-8.915c0-1.082.888-1.974 2-1.974 1.113 0 2 .892 2 1.974V31l2.09.523.91-.74v-5.809c0-1.082.888-1.974 2-1.974 1.113 0 2 .892 2 1.974v2.56l2-1.626v-.934c0-2.203-1.799-3.974-4-3.974-1.214 0-2.306.54-3.042 1.394A3.993 3.993 0 0 0 32.631 19c-.728 0-1.411.193-2 .532V9h1v4.292a8 8 0 1 0-12 0V9h1v18.413a5.01 5.01 0 0 0-2-.413c-2.754 0-5 2.215-5 4.966V43.98c.003.43.092.94.232 1.346l1.32 3.696 1.647-1.338-1.083-3.03a1.647 1.647 0 0 1-.116-.674V31.966c0-1.63 1.335-2.966 3-2.966.77 0 1.47.286 2 .755V43h1.964l.036-.03V8a3 3 0 0 1 3-3z"/><path id="path1_fill" d="M28.178 61.133l-6.82-6.82-1.56 1.268 6.966 6.966a4 4 0 0 0 3.683 1.08l13.034-2.852a4 4 0 0 0 2.684-2.044l4.005-7.61a4.477 4.477 0 0 0 .46-1.862v-18.73l-2 1.625V49.26c.003.143-.004.268-.025.386-.032.183-.097.35-.205.545l-4.004 7.61a2 2 0 0 1-1.343 1.022l-13.034 2.85a2.001 2.001 0 0 1-1.841-.539z"/><path id="path2_fill" d="M1.261 66.776l64-52L64 13.224l-64 52 1.261 1.552z"/></defs></svg>